<svg xmlns="http://www.w3.org/2000/svg" xmlns:xlink="http://www.w3.org/1999/xlink" width="585" zoomAndPan="magnify" viewBox="0 0 438.75 262.499992" height="350" preserveAspectRatio="xMidYMid meet" version="1.0"><defs><clipPath id="29956983eb"><path d="M 0.292969 0 L 438.207031 0 L 438.207031 262 L 0.292969 262 Z M 0.292969 0 " clip-rule="nonzero"/></clipPath><clipPath id="91b34c87f7"><path d="M 264 215 L 335.796875 215 L 335.796875 261.914062 L 264 261.914062 Z M 264 215 " clip-rule="nonzero"/></clipPath><clipPath id="d22f14aa1a"><path d="M 190 180 L 315 180 L 315 261.914062 L 190 261.914062 Z M 190 180 " clip-rule="nonzero"/></clipPath><clipPath id="61df02cf47"><path d="M 98 150 L 279 150 L 279 261.914062 L 98 261.914062 Z M 98 150 " clip-rule="nonzero"/></clipPath><clipPath id="c29987e177"><path d="M 235 28.359375 L 249 28.359375 L 249 41 L 235 41 Z M 235 28.359375 " clip-rule="nonzero"/></clipPath><clipPath id="92e6b00abc"><path d="M 78.285156 180 L 203 180 L 203 261.914062 L 78.285156 261.914062 Z M 78.285156 180 " clip-rule="nonzero"/></clipPath></defs><g clip-path="url(#29956983eb)"><path fill="#ffffff" d="M 0.292969 0 L 438.207031 0 L 438.207031 262 L 0.292969 262 Z M 0.292969 0 " fill-opacity="1" fill-rule="nonzero"/><path fill="#0000ff" d="M 0.292969 0 L 438.207031 0 L 438.207031 262 L 0.292969 262 Z M 0.292969 0 " fill-opacity="1" fill-rule="nonzero"/></g><path fill="#e4e8ff" d="M 114.101562 177.125 C 114.554688 175.152344 116.316406 173.683594 118.425781 173.683594 C 118.8125 173.683594 119.1875 173.734375 119.542969 173.824219 C 120.585938 171.601562 122.839844 170.058594 125.457031 170.058594 C 126.136719 170.058594 126.785156 170.164062 127.398438 170.355469 C 128.808594 168.019531 131.367188 166.460938 134.292969 166.460938 C 137.769531 166.460938 140.734375 168.667969 141.855469 171.761719 C 142.652344 171.320312 143.566406 171.066406 144.539062 171.066406 C 147.589844 171.066406 150.0625 173.539062 150.0625 176.589844 C 150.0625 176.769531 150.054688 176.949219 150.035156 177.125 Z M 114.101562 177.125 " fill-opacity="1" fill-rule="nonzero"/><path fill="#e4e8ff" d="M 289.078125 143.628906 C 289.480469 141.875 291.050781 140.566406 292.929688 140.566406 C 293.273438 140.566406 293.605469 140.609375 293.925781 140.691406 C 294.847656 138.710938 296.859375 137.339844 299.1875 137.339844 C 299.789062 137.339844 300.371094 137.429688 300.917969 137.601562 C 302.171875 135.523438 304.449219 134.136719 307.054688 134.136719 C 310.152344 134.136719 312.789062 136.101562 313.789062 138.855469 C 314.5 138.460938 315.3125 138.234375 316.179688 138.234375 C 318.894531 138.234375 321.097656 140.433594 321.097656 143.152344 C 321.097656 143.3125 321.085938 143.472656 321.070312 143.628906 Z M 289.078125 143.628906 " fill-opacity="1" fill-rule="nonzero"/><path fill="#e4e8ff" d="M 136.207031 132.859375 C 136.894531 129.859375 139.578125 127.625 142.78125 127.625 C 143.367188 127.625 143.9375 127.699219 144.484375 127.839844 C 146.066406 124.457031 149.5 122.113281 153.480469 122.113281 C 154.507812 122.113281 155.5 122.269531 156.4375 122.558594 C 158.578125 119.011719 162.472656 116.636719 166.921875 116.636719 C 172.210938 116.636719 176.71875 119.996094 178.429688 124.699219 C 179.636719 124.027344 181.027344 123.640625 182.511719 123.640625 C 187.148438 123.640625 190.910156 127.402344 190.910156 132.042969 C 190.910156 132.316406 190.898438 132.589844 190.871094 132.859375 Z M 136.207031 132.859375 " fill-opacity="1" fill-rule="nonzero"/><path fill="#e4e8ff" d="M 267.960938 58.460938 C 268.328125 56.875 269.746094 55.695312 271.441406 55.695312 C 271.753906 55.695312 272.054688 55.734375 272.34375 55.808594 C 273.179688 54.019531 274.996094 52.777344 277.105469 52.777344 C 277.652344 52.777344 278.175781 52.859375 278.667969 53.011719 C 279.804688 51.132812 281.863281 49.878906 284.21875 49.878906 C 287.019531 49.878906 289.40625 51.65625 290.308594 54.148438 C 290.949219 53.789062 291.683594 53.585938 292.46875 53.585938 C 294.925781 53.585938 296.914062 55.578125 296.914062 58.03125 C 296.914062 58.179688 296.910156 58.320312 296.894531 58.464844 L 267.960938 58.464844 Z M 267.960938 58.460938 " fill-opacity="1" fill-rule="nonzero"/><path fill="#193564" d="M 210.808594 92.710938 C 210.835938 93.074219 210.894531 93.378906 210.957031 93.664062 C 210.554688 93.789062 210.164062 94.214844 210.164062 94.660156 L 210.105469 95.703125 L 209.203125 95.703125 L 209.203125 94.660156 C 209.203125 93.726562 209.933594 92.898438 210.808594 92.710938 Z M 210.808594 92.710938 " fill-opacity="1" fill-rule="nonzero"/><path fill="#193564" d="M 217.070312 92.984375 C 217.070312 92.984375 217.132812 92.890625 217.210938 92.742188 C 218.144531 92.886719 218.917969 93.6875 218.917969 94.660156 L 218.917969 95.703125 L 217.960938 95.703125 L 217.957031 94.660156 C 217.957031 94.160156 217.53125 93.75 217.050781 93.6875 C 217.070312 93.300781 217.070312 92.984375 217.070312 92.984375 Z M 217.070312 92.984375 " fill-opacity="1" fill-rule="nonzero"/><path fill="#f2adab" d="M 247.59375 36.152344 C 246.9375 35.605469 246.90625 33.695312 246.90625 33.695312 L 242.992188 32.957031 L 237.519531 36.425781 C 237.519531 36.425781 238.878906 38.753906 239.140625 40.726562 C 239.140625 40.726562 238.945312 42.035156 238.144531 43.101562 L 242.449219 47.183594 L 244.34375 45.964844 L 244.4375 43.371094 L 244.351562 42.898438 C 245.078125 42.988281 245.867188 42.980469 246.363281 42.625 C 247.464844 41.835938 248.046875 39.941406 247.625 38.632812 C 247.625 38.632812 247.171875 38.03125 248.144531 37.871094 C 249.113281 37.714844 248.25 36.695312 247.59375 36.152344 Z M 247.59375 36.152344 " fill-opacity="1" fill-rule="nonzero"/><path fill="#f2adab" d="M 214.644531 87.796875 C 214.714844 89.046875 216.84375 90.207031 217.363281 91.054688 C 217.886719 91.902344 217.125 92.984375 217.125 92.984375 C 217.125 92.984375 217.136719 94.085938 216.96875 94.679688 C 216.804688 95.273438 216.144531 95.335938 215.492188 94.777344 C 214.839844 94.21875 214.554688 95.171875 213.707031 95.011719 C 212.859375 94.847656 212.707031 94.390625 211.640625 94.496094 C 209.769531 94.6875 211.347656 87.484375 211.347656 87.484375 Z M 214.644531 87.796875 " fill-opacity="1" fill-rule="nonzero"/><path fill="#f2adab" d="M 260.648438 42.292969 C 260.625 41.039062 258.535156 39.808594 258.046875 38.941406 C 257.554688 38.074219 258.351562 37.019531 258.351562 37.019531 C 258.351562 37.019531 258.382812 35.921875 258.566406 35.332031 C 258.757812 34.742188 259.417969 34.703125 260.050781 35.285156 C 260.679688 35.867188 261 34.925781 261.839844 35.117188 C 262.683594 35.308594 262.816406 35.773438 263.886719 35.703125 C 265.765625 35.582031 263.929688 42.722656 263.929688 42.722656 Z M 260.648438 42.292969 " fill-opacity="1" fill-rule="nonzero"/><path fill="#e4e8ff" d="M 238.144531 43.101562 C 238.144531 43.101562 239.6875 44.484375 242.273438 45.722656 C 242.273438 45.722656 243.730469 44.726562 244.4375 43.371094 L 246.484375 44.410156 C 246.484375 44.410156 247.941406 55.386719 247.925781 62.050781 C 247.90625 68.714844 249.652344 81.769531 253.828125 86.542969 C 253.828125 86.542969 250.304688 94.167969 242.609375 94.167969 C 234.914062 94.167969 228.21875 85.472656 228.21875 85.472656 C 228.21875 85.472656 237.652344 81.601562 238.503906 78.246094 C 239.351562 74.890625 237.050781 66.085938 235.710938 62.636719 C 234.375 59.183594 234.585938 49.21875 236.28125 44.832031 Z M 238.144531 43.101562 " fill-opacity="1" fill-rule="nonzero"/><path fill="#e4e8ff" d="M 210.726562 87.027344 L 210.730469 88.339844 L 215.453125 88.578125 L 215.507812 87.0625 Z M 210.726562 87.027344 " fill-opacity="1" fill-rule="nonzero"/><path fill="#e4e8ff" d="M 264.535156 43.203125 L 264.578125 41.890625 L 259.867188 41.484375 L 259.761719 42.996094 Z M 264.535156 43.203125 " fill-opacity="1" fill-rule="nonzero"/><path fill="#e4e8ff" d="M 261.140625 136.6875 L 261.628906 141.121094 L 254.988281 142.210938 L 254.457031 136.6875 Z M 261.140625 136.6875 " fill-opacity="1" fill-rule="nonzero"/><path fill="#e4e8ff" d="M 216.363281 132.125 L 213.238281 134.300781 L 218.777344 138.886719 L 221.957031 135.4375 Z M 216.363281 132.125 " fill-opacity="1" fill-rule="nonzero"/><g clip-path="url(#91b34c87f7)"><path fill="#e4e8ff" d="M 286.515625 245.539062 L 264.410156 261.933594 L 283.644531 261.933594 L 310.40625 241.996094 L 324.628906 231.308594 L 329.890625 238.3125 L 335.667969 215.359375 L 312.652344 215.359375 L 317.699219 222.078125 L 286.5 245.519531 Z M 286.515625 245.539062 " fill-opacity="1" fill-rule="nonzero"/></g><path fill="#2878b5" d="M 238.144531 43.101562 C 238.144531 43.101562 229.65625 45.292969 228.585938 46.246094 C 227.515625 47.195312 217.5625 59.25 216.4375 61.355469 C 215.308594 63.464844 213.484375 66.605469 212.214844 72.609375 C 211.125 77.742188 210.03125 87.429688 210.03125 87.429688 L 216.03125 87.746094 L 220.78125 68.632812 L 228.460938 61.105469 C 228.460938 61.105469 230.449219 78.21875 227.394531 85.035156 C 227.394531 85.035156 234.300781 89.109375 243.910156 88.65625 C 243.910156 88.65625 242.679688 68.230469 240.328125 62.433594 C 237.972656 56.636719 237.804688 49.730469 238.144531 43.101562 Z M 238.144531 43.101562 " fill-opacity="1" fill-rule="nonzero"/><path fill="#2878b5" d="M 244.4375 43.371094 C 244.4375 43.371094 246.445312 56.28125 245.96875 63.386719 C 245.492188 70.492188 245.335938 72.964844 246.34375 78.246094 C 247.355469 83.53125 248.113281 88.285156 248.113281 88.285156 C 248.113281 88.285156 252.011719 87.644531 255.464844 85.746094 C 255.464844 85.746094 254.621094 77.652344 252.621094 72.878906 C 249.308594 64.96875 250.90625 57.441406 250.90625 57.441406 C 250.90625 57.441406 256.320312 63.96875 260.375 63.210938 C 264.988281 62.34375 264.902344 56.585938 265.191406 50.535156 C 265.460938 44.902344 265.257812 42.496094 265.257812 42.496094 L 259.207031 42.152344 C 259.207031 42.152344 258.519531 49.230469 258.730469 54.605469 L 251.671875 45.097656 C 251.671875 45.097656 249.738281 43.117188 244.4375 43.371094 Z M 244.4375 43.371094 " fill-opacity="1" fill-rule="nonzero"/><path fill="#2878b5" d="M 224.324219 111.695312 L 203.800781 111.695312 C 202.917969 111.695312 202.199219 110.976562 202.199219 110.09375 L 202.199219 98.039062 L 225.925781 98.039062 L 225.925781 110.09375 C 225.925781 110.976562 225.207031 111.695312 224.324219 111.695312 Z M 224.324219 111.695312 " fill-opacity="1" fill-rule="nonzero"/><path fill="#2878b5" d="M 246.820312 36.207031 C 246.804688 36.738281 246.410156 37.160156 245.9375 37.148438 C 245.464844 37.132812 245.097656 36.691406 245.109375 36.15625 C 245.125 35.625 245.519531 35.203125 245.992188 35.214844 C 246.464844 35.230469 246.835938 35.671875 246.820312 36.207031 Z M 246.820312 36.207031 " fill-opacity="1" fill-rule="nonzero"/><path fill="#2878b5" d="M 248.910156 35.0625 C 248.894531 35.59375 248.503906 36.015625 248.03125 36.003906 C 247.558594 35.992188 247.1875 35.546875 247.203125 35.011719 C 247.21875 34.480469 247.613281 34.058594 248.085938 34.070312 C 248.558594 34.082031 248.925781 34.527344 248.910156 35.0625 Z M 248.910156 35.0625 " fill-opacity="1" fill-rule="nonzero"/><path fill="#2878b5" d="M 269.511719 30.085938 C 269.3125 30.089844 269.121094 30.15625 268.945312 30.269531 L 248.121094 34.414062 C 247.8125 34.46875 247.585938 34.742188 247.59375 35.058594 C 247.601562 35.375 247.835938 35.640625 248.148438 35.679688 L 269.046875 37.429688 C 269.246094 37.5625 269.460938 37.632812 269.679688 37.628906 C 270.734375 37.605469 271.554688 35.894531 271.507812 33.8125 C 271.464844 31.730469 270.570312 30.0625 269.511719 30.085938 Z M 269.511719 30.085938 " fill-opacity="1" fill-rule="nonzero"/><path fill="#2878b5" d="M 267.128906 32.773438 C 266.921875 32.769531 266.722656 32.824219 266.527344 32.929688 L 246.09375 35.496094 C 245.757812 35.539062 245.503906 35.820312 245.496094 36.15625 C 245.484375 36.492188 245.722656 36.785156 246.054688 36.847656 L 266.203125 40.558594 C 266.417969 40.71875 266.652344 40.816406 266.898438 40.824219 C 268.023438 40.855469 268.992188 39.082031 269.054688 36.859375 C 269.117188 34.636719 268.253906 32.808594 267.128906 32.773438 Z M 267.128906 32.773438 " fill-opacity="1" fill-rule="nonzero"/><path fill="#2878b5" d="M 270.378906 82.898438 L 279.277344 94.746094 L 224.257812 136.09375 L 224.285156 136.132812 L 143.859375 194.871094 L 179.1875 194.871094 L 266.417969 129.878906 L 291.503906 111.027344 L 300.78125 123.382812 L 310.972656 82.898438 Z M 270.378906 82.898438 " fill-opacity="1" fill-rule="nonzero"/><g clip-path="url(#d22f14aa1a)"><path fill="#2878b5" d="M 234.632812 229.511719 L 190.910156 261.933594 L 222.257812 261.933594 L 273.519531 223.742188 L 296.671875 206.34375 L 305.230469 217.746094 L 314.636719 180.382812 L 277.175781 180.382812 L 285.386719 191.320312 L 234.609375 229.476562 Z M 234.632812 229.511719 " fill-opacity="1" fill-rule="nonzero"/></g><path fill="#ffbd00" d="M 242.273438 45.722656 C 242.273438 45.722656 241.730469 46.804688 240.785156 47.363281 C 240.785156 47.363281 242.089844 48.578125 242.628906 48.640625 C 243.171875 48.707031 243.769531 47.363281 243.769531 47.363281 C 243.769531 47.363281 243.5 46.285156 242.273438 45.722656 Z M 242.273438 45.722656 " fill-opacity="1" fill-rule="nonzero"/><path fill="#ffbd00" d="M 242.195312 47.515625 C 242.195312 47.515625 240.949219 52.742188 236.378906 55.734375 C 231.808594 58.730469 229.238281 61.117188 229.179688 70.324219 C 229.179688 70.324219 229.554688 76.390625 225.953125 79.386719 L 226.175781 86.527344 C 226.175781 86.527344 230.941406 84.503906 232.785156 81.417969 C 234.625 78.332031 234.152344 70.324219 234.078125 68.613281 C 234 66.902344 233.894531 61.878906 237.835938 58.382812 C 241.773438 54.882812 243.058594 51.734375 243.308594 47.675781 Z M 242.195312 47.515625 " fill-opacity="1" fill-rule="nonzero"/><path fill="#ffbd00" d="M 214.0625 107.109375 C 214.578125 107.109375 214.992188 106.691406 214.992188 106.179688 L 214.992188 105.398438 C 214.992188 104.882812 214.578125 104.464844 214.0625 104.464844 C 213.550781 104.464844 213.132812 104.882812 213.132812 105.398438 L 213.132812 106.179688 C 213.132812 106.691406 213.550781 107.109375 214.0625 107.109375 Z M 214.0625 107.109375 " fill-opacity="1" fill-rule="nonzero"/><path fill="#ffbd00" d="M 264.96875 36.742188 C 265.019531 34.925781 265.675781 33.40625 266.527344 32.929688 L 246.09375 35.496094 C 245.757812 35.539062 245.503906 35.820312 245.496094 36.15625 C 245.484375 36.492188 245.722656 36.785156 246.054688 36.847656 L 266.203125 40.558594 C 265.4375 39.972656 264.917969 38.480469 264.96875 36.742188 Z M 264.96875 36.742188 " fill-opacity="1" fill-rule="nonzero"/><path fill="#ffbd00" d="M 266.527344 32.929688 C 266.71875 32.824219 266.917969 32.769531 267.128906 32.773438 C 267.335938 32.78125 267.535156 32.847656 267.722656 32.96875 C 267.855469 31.695312 268.324219 30.671875 268.945312 30.269531 L 248.121094 34.414062 C 247.8125 34.46875 247.585938 34.742188 247.59375 35.058594 C 247.59375 35.144531 247.617188 35.226562 247.648438 35.300781 Z M 266.527344 32.929688 " fill-opacity="1" fill-rule="nonzero"/><g clip-path="url(#61df02cf47)"><path fill="#ffbd00" d="M 108.679688 261.933594 L 165.855469 261.933594 L 239.351562 206.714844 L 257.902344 231.421875 L 278.285156 150.449219 L 197.101562 150.449219 L 214.898438 174.152344 L 98.074219 261.933594 Z M 108.679688 261.933594 " fill-opacity="1" fill-rule="nonzero"/></g><path fill="#193564" d="M 244.4375 43.371094 C 244.4375 43.371094 245.632812 51.066406 245.960938 57.84375 C 247.125 53.457031 248.925781 49.367188 248.925781 49.367188 C 248.289062 48.5 246.535156 47.535156 246.535156 47.535156 L 248.058594 46.3125 C 247.527344 45.25 246.867188 44.183594 246.335938 43.378906 C 245.757812 43.34375 245.125 43.339844 244.4375 43.371094 Z M 244.4375 43.371094 " fill-opacity="1" fill-rule="nonzero"/><path fill="#193564" d="M 261.515625 108.40625 C 259.996094 103.632812 254.273438 87.777344 253.828125 86.546875 C 253.371094 86.746094 252.917969 86.925781 252.480469 87.085938 C 250.394531 87.847656 248.625 88.191406 248.207031 88.269531 C 248.207031 88.269531 248.207031 88.269531 248.203125 88.269531 C 248.175781 88.273438 248.152344 88.277344 248.140625 88.28125 C 248.136719 88.28125 248.136719 88.28125 248.136719 88.28125 C 248.125 88.28125 248.117188 88.285156 248.117188 88.285156 L 247.746094 86.035156 C 247.492188 84.550781 247.132812 82.464844 246.707031 80.164062 C 245.5625 80.253906 244.289062 80.199219 243.234375 80.113281 C 243.609375 84.132812 243.832031 87.449219 243.890625 88.394531 C 243.890625 88.394531 243.910156 88.660156 243.910156 88.660156 C 243.429688 88.683594 242.960938 88.683594 242.492188 88.6875 C 241.734375 88.6875 240.984375 88.671875 240.261719 88.621094 C 240.257812 88.621094 240.25 88.621094 240.246094 88.621094 C 234.617188 88.238281 230.316406 86.484375 228.4375 85.582031 L 228.222656 85.476562 C 228.222656 85.476562 225.09375 92.046875 228.796875 102.566406 C 232.5 113.085938 230.726562 113.492188 230.726562 113.492188 L 214.394531 132.304688 L 222.191406 137.871094 C 222.191406 137.871094 240.015625 119.746094 241.3125 115.179688 C 242.703125 110.28125 243.007812 102.882812 242.972656 96.832031 C 246.402344 105.207031 251.1875 113.269531 251.1875 113.269531 C 251.402344 121.96875 253.265625 139.46875 253.265625 139.46875 L 262.089844 138.785156 C 260.933594 133.292969 263.101562 113.375 261.515625 108.40625 Z M 261.515625 108.40625 " fill-opacity="1" fill-rule="nonzero"/><g clip-path="url(#c29987e177)"><path fill="#193564" d="M 239.140625 40.726562 C 239.140625 40.726562 238.949219 39.90625 237.640625 38.828125 C 236.332031 37.75 234.726562 35.03125 235.613281 32.902344 C 235.613281 32.902344 236.347656 31.214844 238.210938 30.835938 C 238.210938 30.835938 239.027344 28.351562 241.148438 28.359375 C 243.269531 28.367188 244.589844 29.394531 245.523438 29.488281 C 246.457031 29.582031 248.839844 29.976562 248.679688 31.828125 C 248.523438 33.679688 246.125 35.546875 244.046875 34.105469 C 244.046875 34.105469 243.105469 33.527344 243.226562 35.09375 C 243.347656 36.65625 243.117188 37.027344 243.117188 37.027344 C 243.117188 37.027344 242.496094 35.523438 241.5625 35.425781 C 240.628906 35.332031 240.121094 35.941406 240.164062 36.671875 C 240.214844 37.589844 239.714844 39.941406 239.140625 40.726562 Z M 239.140625 40.726562 " fill-opacity="1" fill-rule="nonzero"/></g><path fill="#193564" d="M 219.707031 150.617188 L 207.714844 140.304688 C 207.101562 139.941406 207.769531 138.324219 208.25 137.925781 L 212.882812 133.808594 C 214.679688 133.429688 214.621094 136.167969 216.554688 136.328125 C 218.773438 137.015625 219.289062 137.632812 219.703125 138.230469 C 220.4375 139.261719 219.203125 139.617188 218.425781 140.234375 C 216.96875 141.078125 217.449219 141.730469 218.40625 142.425781 C 222.675781 145.523438 224.449219 150.253906 219.707031 150.617188 Z M 219.707031 150.617188 " fill-opacity="1" fill-rule="nonzero"/><path fill="#193564" d="M 272.378906 150.511719 L 255.632812 150.511719 C 254.171875 150.519531 253.257812 148.980469 253.382812 148.351562 L 253.785156 142.5 C 254.125 141.21875 256.714844 142.324219 258.46875 141.140625 C 260.847656 140.167969 260.988281 139.902344 261.761719 140.078125 C 263.117188 140.367188 263.09375 141.21875 262.867188 142.214844 C 262.226562 143.84375 264.324219 145.234375 265.632812 145.242188 C 270.976562 145.269531 275.730469 149.039062 272.378906 150.511719 Z M 272.378906 150.511719 " fill-opacity="1" fill-rule="nonzero"/><path fill="#193564" d="M 238.527344 57.742188 C 238.75 58.101562 238.964844 58.460938 239.164062 58.820312 C 239.046875 58.359375 238.945312 57.894531 238.851562 57.421875 C 238.746094 57.527344 238.636719 57.632812 238.527344 57.742188 Z M 238.527344 57.742188 " fill-opacity="1" fill-rule="nonzero"/><path fill="#193564" d="M 233.402344 51 C 233.402344 51 235.152344 52.941406 236.914062 55.359375 C 237.433594 54.976562 237.90625 54.566406 238.339844 54.140625 C 237.929688 50.535156 237.960938 46.777344 238.148438 43.101562 C 238.148438 43.101562 236.726562 43.46875 234.976562 43.96875 C 234.507812 44.867188 233.914062 46.023438 233.449219 46.910156 L 235.851562 48.203125 C 235.851562 48.199219 234.453125 49.210938 233.402344 51 Z M 233.402344 51 " fill-opacity="1" fill-rule="nonzero"/><path fill="#193564" d="M 224.324219 95.328125 L 203.800781 95.328125 C 202.917969 95.328125 202.199219 96.042969 202.199219 96.929688 L 202.199219 98.296875 C 202.199219 99.179688 202.6875 99.992188 203.464844 100.410156 L 212.925781 105.5 C 212.992188 105.539062 213.0625 105.566406 213.128906 105.59375 L 213.128906 105.398438 C 213.128906 104.882812 213.546875 104.464844 214.0625 104.464844 C 214.574219 104.464844 214.992188 104.882812 214.992188 105.398438 L 214.992188 105.59375 C 215.0625 105.566406 215.132812 105.539062 215.199219 105.5 L 224.660156 100.410156 C 225.4375 99.992188 225.921875 99.179688 225.921875 98.296875 L 225.921875 96.929688 C 225.925781 96.046875 225.207031 95.328125 224.324219 95.328125 Z M 224.324219 95.328125 " fill-opacity="1" fill-rule="nonzero"/><path fill="#193564" d="M 267.039062 40.359375 C 266.355469 40.339844 265.636719 38.859375 265.699219 36.761719 C 265.757812 34.667969 266.558594 33.226562 267.242188 33.246094 C 267.925781 33.265625 268.644531 34.75 268.585938 36.84375 C 268.527344 38.941406 267.722656 40.378906 267.039062 40.359375 Z M 267.039062 40.359375 " fill-opacity="1" fill-rule="nonzero"/><path fill="#193564" d="M 269.644531 30.523438 C 269.027344 30.535156 268.371094 31.824219 268.363281 33.675781 C 268.792969 34.382812 269.054688 35.445312 269.054688 36.636719 C 269.285156 36.992188 269.546875 37.191406 269.792969 37.1875 C 270.433594 37.171875 271.117188 35.789062 271.070312 33.824219 C 271.027344 31.859375 270.285156 30.507812 269.644531 30.523438 Z M 269.644531 30.523438 " fill-opacity="1" fill-rule="nonzero"/><g clip-path="url(#92e6b00abc)"><path fill="#193564" d="M 122.199219 229.511719 L 78.472656 261.933594 L 109.820312 261.933594 L 161.082031 223.742188 L 184.234375 206.34375 L 192.792969 217.746094 L 202.199219 180.382812 L 164.738281 180.382812 L 172.953125 191.320312 L 122.171875 229.476562 Z M 122.199219 229.511719 " fill-opacity="1" fill-rule="nonzero"/></g><path fill="#193564" d="M 243.40625 46.648438 C 243.6875 47.039062 243.765625 47.363281 243.765625 47.363281 C 243.765625 47.363281 243.554688 47.847656 243.265625 48.21875 C 242.933594 52.015625 241.589844 55.042969 237.832031 58.382812 C 233.890625 61.878906 233.996094 66.902344 234.074219 68.613281 C 234.152344 70.324219 234.625 78.332031 232.78125 81.421875 C 231.734375 83.175781 229.746094 84.585938 228.21875 85.476562 C 227.941406 86.015625 227.601562 87.332031 227.601562 87.332031 C 227.601562 87.332031 232.3125 85.175781 234.066406 82.039062 C 235.820312 78.902344 235.121094 70.910156 234.992188 69.203125 C 234.871094 67.496094 234.625 62.476562 238.460938 58.871094 C 242.125 55.425781 243.382812 52.363281 243.609375 48.554688 C 243.886719 48.175781 244.085938 47.691406 244.085938 47.691406 C 244.085938 47.691406 243.9375 47.148438 243.40625 46.648438 Z M 243.40625 46.648438 " fill-opacity="0.2" fill-rule="nonzero"/><path fill="#193564" d="M 244.355469 42.910156 L 244.261719 42.894531 C 244.261719 42.894531 242.480469 42.523438 241.046875 41.492188 C 241.046875 41.492188 242.121094 42.664062 244.4375 43.371094 Z M 244.355469 42.910156 " fill-opacity="0.2" fill-rule="nonzero"/><path fill="#193564" d="M 267.371094 32.816406 C 267.414062 32.828125 267.453125 32.839844 267.496094 32.855469 C 267.515625 32.863281 267.535156 32.871094 267.558594 32.878906 C 267.613281 32.90625 267.667969 32.933594 267.71875 32.96875 C 267.773438 32.460938 267.882812 31.992188 268.03125 31.585938 C 263.726562 32.394531 251.214844 34.742188 248.421875 34.894531 C 248.25 34.9375 248.082031 34.976562 247.910156 35.027344 C 247.796875 35.058594 247.691406 35.070312 247.59375 35.070312 C 247.597656 35.152344 247.617188 35.230469 247.648438 35.304688 L 266.527344 32.933594 C 266.71875 32.828125 266.917969 32.769531 267.128906 32.777344 C 267.191406 32.777344 267.253906 32.789062 267.3125 32.800781 C 267.332031 32.800781 267.351562 32.808594 267.371094 32.816406 Z M 267.371094 32.816406 " fill-opacity="0.2" fill-rule="nonzero"/><path fill="#193564" d="M 227.605469 61.945312 L 228.460938 61.105469 C 228.460938 61.105469 228.414062 56.503906 228.785156 52.867188 C 228.785156 52.871094 227.769531 58.183594 227.605469 61.945312 Z M 227.605469 61.945312 " fill-opacity="0.2" fill-rule="nonzero"/><path fill="#193564" d="M 250.90625 57.441406 C 250.90625 57.441406 251.046875 57.609375 251.28125 57.871094 C 251.617188 53.996094 251.359375 50.914062 251.359375 50.914062 C 251.222656 54.332031 250.90625 57.441406 250.90625 57.441406 Z M 250.90625 57.441406 " fill-opacity="0.2" fill-rule="nonzero"/></svg>