<svg xmlns="http://www.w3.org/2000/svg" xmlns:xlink="http://www.w3.org/1999/xlink" width="500" zoomAndPan="magnify" viewBox="0 0 375 374.999991" height="500" preserveAspectRatio="xMidYMid meet" version="1.0"><defs><g/><clipPath id="814774d732"><path d="M 125 94 L 264 94 L 264 267 L 125 267 Z M 125 94 " clip-rule="nonzero"/></clipPath><clipPath id="37c098806f"><path d="M 99.070312 124.070312 L 238.648438 80.402344 L 287.019531 235.011719 L 147.441406 278.679688 Z M 99.070312 124.070312 " clip-rule="nonzero"/></clipPath><clipPath id="5beee7e545"><path d="M 99.070312 124.070312 L 238.648438 80.402344 L 287.019531 235.011719 L 147.441406 278.679688 Z M 99.070312 124.070312 " clip-rule="nonzero"/></clipPath></defs><rect x="-37.5" width="450" fill="#ffffff" y="-37.499999" height="449.999989" fill-opacity="1"/><rect x="-37.5" width="450" fill="#ffffff" y="-37.499999" height="449.999989" fill-opacity="1"/><g fill="#0000ff" fill-opacity="1"><g transform="translate(87.175826, 146.667053)"><g><path d="M 8.078125 12.453125 C 8.160156 12.085938 8.273438 11.71875 8.421875 11.34375 C 8.578125 10.96875 8.753906 10.578125 8.953125 10.171875 L 1.921875 7.40625 C 1.328125 7.175781 0.898438 7.109375 0.640625 7.203125 C 0.378906 7.304688 0.320312 7.660156 0.46875 8.265625 L -0.328125 8.46875 L -1.65625 4.234375 C -1.21875 3.898438 -0.660156 3.695312 0.015625 3.625 C 0.691406 3.5625 1.453125 3.691406 2.296875 4.015625 L 10.53125 7.25 C 10.90625 6.570312 11.1875 5.921875 11.375 5.296875 C 11.5625 4.679688 11.609375 4.097656 11.515625 3.546875 L 12.28125 3.40625 L 13.25 7.78125 C 13.164062 8.289062 12.988281 8.832031 12.71875 9.40625 C 12.457031 9.976562 12.148438 10.5625 11.796875 11.15625 C 11.453125 11.75 11.125 12.335938 10.8125 12.921875 C 10.507812 13.503906 10.273438 14.070312 10.109375 14.625 C 9.941406 15.175781 9.910156 15.6875 10.015625 16.15625 L 9.390625 16.421875 Z M 8.078125 12.453125 "/></g></g></g><g fill="#0000ff" fill-opacity="1"><g transform="translate(79.205153, 171.88163)"><g><path d="M 1.75 13.890625 L 1.046875 14.3125 L -1.3125 10.546875 C -0.957031 10.109375 -0.460938 9.769531 0.171875 9.53125 C 0.804688 9.300781 1.582031 9.25 2.5 9.375 L 5.171875 9.703125 L 4.375 8.796875 L 4.796875 5.484375 C 4.617188 5.472656 4.453125 5.460938 4.296875 5.453125 C 4.148438 5.453125 4 5.445312 3.84375 5.4375 C 3.25 5.414062 2.832031 5.46875 2.59375 5.59375 C 2.351562 5.726562 2.375 6.054688 2.65625 6.578125 L 1.953125 7 L -0.40625 3.234375 C -0.0507812 2.796875 0.441406 2.457031 1.078125 2.21875 C 1.710938 1.976562 2.488281 1.925781 3.40625 2.0625 L 10.203125 2.90625 C 10.847656 2.957031 11.273438 2.859375 11.484375 2.609375 C 11.691406 2.367188 11.640625 1.921875 11.328125 1.265625 L 12.046875 0.984375 L 14.703125 5.109375 C 14.347656 5.484375 14 5.769531 13.65625 5.96875 C 13.3125 6.175781 12.910156 6.300781 12.453125 6.34375 C 12.003906 6.394531 11.445312 6.378906 10.78125 6.296875 C 10.78125 6.296875 10.660156 6.28125 10.421875 6.25 C 10.179688 6.21875 9.878906 6.175781 9.515625 6.125 C 9.160156 6.082031 8.804688 6.039062 8.453125 6 C 8.097656 5.957031 7.800781 5.921875 7.5625 5.890625 C 7.320312 5.859375 7.203125 5.84375 7.203125 5.84375 L 6.703125 9.890625 L 9.25 10.203125 C 9.894531 10.273438 10.320312 10.1875 10.53125 9.9375 C 10.738281 9.6875 10.6875 9.226562 10.375 8.5625 L 11.140625 8.3125 L 13.796875 12.421875 C 13.441406 12.796875 13.085938 13.082031 12.734375 13.28125 C 12.390625 13.488281 11.992188 13.613281 11.546875 13.65625 C 11.097656 13.707031 10.539062 13.6875 9.875 13.59375 L 2.9375 12.75 C 2.34375 12.675781 1.925781 12.71875 1.6875 12.875 C 1.445312 13.039062 1.46875 13.378906 1.75 13.890625 Z M 1.75 13.890625 "/></g></g></g><g fill="#0000ff" fill-opacity="1"><g transform="translate(77.72628, 201.342485)"><g><path d="M 4.125 4.34375 C 4.207031 4.945312 4.253906 5.519531 4.265625 6.0625 C 4.273438 6.601562 4.300781 7.113281 4.34375 7.59375 C 4.382812 8.070312 4.484375 8.546875 4.640625 9.015625 C 4.796875 9.484375 5.054688 9.945312 5.421875 10.40625 L 5.03125 10.921875 L 1 7.453125 C 0.90625 6.734375 0.863281 6.082031 0.875 5.5 C 0.882812 4.925781 0.894531 4.40625 0.90625 3.9375 C 0.925781 3.46875 0.890625 3.03125 0.796875 2.625 C 0.710938 2.21875 0.507812 1.820312 0.1875 1.4375 L 0.578125 0.875 C 0.796875 0.976562 0.972656 1.0625 1.109375 1.125 C 1.242188 1.195312 1.40625 1.253906 1.59375 1.296875 C 1.789062 1.335938 2.039062 1.335938 2.34375 1.296875 L 10.609375 0.1875 L 10.59375 0.171875 C 11.25 0.078125 11.644531 -0.113281 11.78125 -0.40625 C 11.914062 -0.695312 11.757812 -1.125 11.3125 -1.6875 L 11.90625 -2.09375 L 15.5 1.171875 C 15.4375 1.617188 15.289062 1.96875 15.0625 2.21875 C 14.832031 2.46875 14.546875 2.664062 14.203125 2.8125 L 15.875 4.421875 C 16.03125 4.859375 16.097656 5.300781 16.078125 5.75 C 16.066406 6.207031 16.039062 6.660156 16 7.109375 C 15.957031 7.566406 15.96875 8.015625 16.03125 8.453125 C 16.09375 8.890625 16.269531 9.300781 16.5625 9.6875 L 16.171875 10.015625 L 12.75 6.828125 C 12.664062 6.253906 12.640625 5.75 12.671875 5.3125 C 12.710938 4.882812 12.765625 4.503906 12.828125 4.171875 C 12.890625 3.847656 12.921875 3.515625 12.921875 3.171875 L 12.015625 3.296875 L 9.390625 3.640625 L 10.109375 9.03125 L 9.234375 9.15625 L 7.46875 7.671875 L 6.96875 3.96875 Z M 4.125 4.34375 "/></g></g></g><g fill="#0000ff" fill-opacity="1"><g transform="translate(83.298404, 228.404367)"><g><path d="M 13.78125 -1.3125 C 14.457031 -1 15.003906 -0.695312 15.421875 -0.40625 C 15.847656 -0.113281 16.191406 0.203125 16.453125 0.546875 C 16.710938 0.890625 16.929688 1.269531 17.109375 1.6875 C 17.304688 2.1875 17.351562 2.644531 17.25 3.0625 C 17.144531 3.476562 16.976562 3.859375 16.75 4.203125 C 16.519531 4.554688 16.300781 4.890625 16.09375 5.203125 C 15.894531 5.523438 15.789062 5.835938 15.78125 6.140625 C 15.769531 6.441406 15.945312 6.75 16.3125 7.0625 L 15.875 7.703125 L 12.640625 5.578125 C 12.410156 5.253906 12.3125 4.914062 12.34375 4.5625 C 12.382812 4.207031 12.492188 3.847656 12.671875 3.484375 C 12.847656 3.117188 13.035156 2.765625 13.234375 2.421875 C 13.441406 2.078125 13.609375 1.742188 13.734375 1.421875 C 13.859375 1.097656 13.890625 0.796875 13.828125 0.515625 C 13.765625 0.242188 13.546875 0 13.171875 -0.21875 C 12.640625 -0.570312 11.898438 -0.65625 10.953125 -0.46875 C 10.003906 -0.289062 9 0.203125 7.9375 1.015625 C 7.507812 1.367188 7.097656 1.816406 6.703125 2.359375 C 6.316406 2.898438 6.019531 3.476562 5.8125 4.09375 C 5.601562 4.71875 5.523438 5.34375 5.578125 5.96875 C 5.628906 6.59375 5.867188 7.179688 6.296875 7.734375 C 6.734375 8.285156 7.421875 8.769531 8.359375 9.1875 L 8.09375 9.890625 C 7.195312 9.585938 6.375 9.269531 5.625 8.9375 C 4.882812 8.613281 4.234375 8.203125 3.671875 7.703125 C 3.109375 7.210938 2.660156 6.550781 2.328125 5.71875 C 1.984375 4.863281 1.867188 3.992188 1.984375 3.109375 C 2.109375 2.222656 2.445312 1.359375 3 0.515625 C 3.5625 -0.328125 4.332031 -1.085938 5.3125 -1.765625 C 6.050781 -2.234375 6.789062 -2.523438 7.53125 -2.640625 C 8.269531 -2.765625 9.003906 -2.769531 9.734375 -2.65625 C 10.472656 -2.550781 11.179688 -2.375 11.859375 -2.125 C 12.535156 -1.875 13.175781 -1.601562 13.78125 -1.3125 Z M 13.78125 -1.3125 "/></g></g></g><g fill="#0000ff" fill-opacity="1"><g transform="translate(96.007818, 254.267315)"><g><path d="M 10.9375 8.75 L 10.734375 9.546875 L 6.40625 8.46875 C 6.351562 7.914062 6.472656 7.332031 6.765625 6.71875 C 7.054688 6.101562 7.578125 5.519531 8.328125 4.96875 L 10.46875 3.359375 L 9.28125 3.25 L 7.265625 0.578125 C 7.128906 0.691406 7.003906 0.800781 6.890625 0.90625 C 6.773438 1.007812 6.660156 1.113281 6.546875 1.21875 C 6.097656 1.613281 5.832031 1.941406 5.75 2.203125 C 5.675781 2.472656 5.921875 2.695312 6.484375 2.875 L 6.28125 3.65625 L 1.96875 2.609375 C 1.90625 2.046875 2.019531 1.453125 2.3125 0.828125 C 2.613281 0.210938 3.140625 -0.363281 3.890625 -0.90625 L 9.34375 -5.03125 C 9.851562 -5.445312 10.09375 -5.816406 10.0625 -6.140625 C 10.039062 -6.460938 9.691406 -6.742188 9.015625 -6.984375 L 9.34375 -7.6875 L 14.109375 -6.578125 C 14.117188 -6.054688 14.066406 -5.601562 13.953125 -5.21875 C 13.847656 -4.84375 13.648438 -4.476562 13.359375 -4.125 C 13.066406 -3.78125 12.648438 -3.410156 12.109375 -3.015625 C 12.109375 -3.015625 12.007812 -2.941406 11.8125 -2.796875 C 11.625 -2.648438 11.382812 -2.46875 11.09375 -2.25 C 10.8125 -2.03125 10.523438 -1.8125 10.234375 -1.59375 C 9.953125 -1.382812 9.710938 -1.207031 9.515625 -1.0625 C 9.328125 -0.914062 9.234375 -0.84375 9.234375 -0.84375 L 11.703125 2.421875 L 13.75 0.875 C 14.257812 0.46875 14.5 0.101562 14.46875 -0.21875 C 14.445312 -0.539062 14.097656 -0.835938 13.421875 -1.109375 L 13.78125 -1.796875 L 18.546875 -0.71875 C 18.554688 -0.195312 18.507812 0.253906 18.40625 0.640625 C 18.300781 1.035156 18.101562 1.40625 17.8125 1.75 C 17.519531 2.101562 17.101562 2.472656 16.5625 2.859375 L 11 7.109375 C 10.519531 7.460938 10.242188 7.78125 10.171875 8.0625 C 10.109375 8.34375 10.363281 8.570312 10.9375 8.75 Z M 10.9375 8.75 "/></g></g></g><g fill="#0000ff" fill-opacity="1"><g transform="translate(115.485217, 276.580953)"><g><path d="M 14.203125 7.265625 L 9.84375 7.40625 L 9.75 7.40625 C 9.582031 7.269531 9.460938 6.925781 9.390625 6.375 C 9.328125 5.820312 9.300781 5.125 9.3125 4.28125 C 9.332031 3.445312 9.363281 2.53125 9.40625 1.53125 C 9.457031 0.53125 9.5 -0.488281 9.53125 -1.53125 C 9.5625 -2.570312 9.566406 -3.5625 9.546875 -4.5 L 6.609375 -0.625 C 6.210938 -0.132812 6.03125 0.242188 6.0625 0.515625 C 6.101562 0.785156 6.425781 0.929688 7.03125 0.953125 L 6.984375 1.78125 L 2.578125 1.953125 C 2.367188 1.441406 2.316406 0.851562 2.421875 0.1875 C 2.535156 -0.476562 2.875 -1.179688 3.4375 -1.921875 L 7.546875 -7.34375 C 7.929688 -7.863281 8.066406 -8.273438 7.953125 -8.578125 C 7.847656 -8.878906 7.429688 -9.0625 6.703125 -9.125 L 6.890625 -9.890625 L 11.796875 -10.15625 C 12.097656 -9.925781 12.328125 -9.539062 12.484375 -9 C 12.640625 -8.457031 12.753906 -7.816406 12.828125 -7.078125 C 12.910156 -6.335938 12.945312 -5.53125 12.9375 -4.65625 C 12.9375 -3.78125 12.925781 -2.882812 12.90625 -1.96875 C 12.882812 -1.050781 12.859375 -0.164062 12.828125 0.6875 L 14.78125 -1.890625 C 15.164062 -2.421875 15.300781 -2.835938 15.1875 -3.140625 C 15.070312 -3.441406 14.660156 -3.617188 13.953125 -3.671875 L 14.09375 -4.46875 L 18.96875 -4.703125 C 19.113281 -4.210938 19.1875 -3.765625 19.1875 -3.359375 C 19.195312 -2.953125 19.117188 -2.535156 18.953125 -2.109375 C 18.796875 -1.691406 18.5 -1.222656 18.0625 -0.703125 L 14.015625 4.703125 C 13.765625 4.972656 13.582031 5.242188 13.46875 5.515625 C 13.363281 5.785156 13.367188 6 13.484375 6.15625 C 13.597656 6.320312 13.851562 6.40625 14.25 6.40625 Z M 14.203125 7.265625 "/></g></g></g><g fill="#0000ff" fill-opacity="1"><g transform="translate(141.874731, 293.664518)"><g><path d="M 11.578125 -11.765625 C 12.398438 -11.441406 13.082031 -10.972656 13.625 -10.359375 C 14.164062 -9.753906 14.566406 -9.070312 14.828125 -8.3125 C 15.085938 -7.550781 15.207031 -6.757812 15.1875 -5.9375 C 15.175781 -5.125 15.023438 -4.335938 14.734375 -3.578125 C 14.453125 -2.816406 14.035156 -2.140625 13.484375 -1.546875 C 12.929688 -0.960938 12.25 -0.515625 11.4375 -0.203125 L 4.6875 1.875 C 4.25 1.5 3.859375 1 3.515625 0.375 C 3.171875 -0.25 2.894531 -0.941406 2.6875 -1.703125 C 2.488281 -2.472656 2.375 -3.257812 2.34375 -4.0625 C 2.3125 -4.875 2.394531 -5.65625 2.59375 -6.40625 C 2.789062 -7.164062 3.117188 -7.84375 3.578125 -8.4375 C 4.046875 -9.039062 4.65625 -9.5 5.40625 -9.8125 Z M 8.75 -0.40625 C 9.238281 -0.789062 9.65625 -1.304688 10 -1.953125 C 10.34375 -2.597656 10.585938 -3.296875 10.734375 -4.046875 C 10.890625 -4.804688 10.925781 -5.554688 10.84375 -6.296875 C 10.757812 -7.035156 10.523438 -7.703125 10.140625 -8.296875 C 9.765625 -8.890625 9.207031 -9.332031 8.46875 -9.625 C 8.019531 -9.414062 7.640625 -9.070312 7.328125 -8.59375 C 7.015625 -8.113281 6.785156 -7.5625 6.640625 -6.9375 C 6.492188 -6.3125 6.425781 -5.65625 6.4375 -4.96875 C 6.445312 -4.289062 6.539062 -3.644531 6.71875 -3.03125 C 6.894531 -2.414062 7.148438 -1.875 7.484375 -1.40625 C 7.828125 -0.9375 8.25 -0.601562 8.75 -0.40625 Z M 8.75 -0.40625 "/></g></g></g><g fill="#0000ff" fill-opacity="1"><g transform="translate(169.076556, 302.342587)"><g><path d="M 13.21875 -1.5 L 13.640625 -0.765625 L 10.65625 1.296875 C 10.238281 1.242188 9.832031 1.046875 9.4375 0.703125 C 9.039062 0.359375 8.664062 -0.0664062 8.3125 -0.578125 C 7.957031 -1.097656 7.640625 -1.65625 7.359375 -2.25 C 7.078125 -2.851562 6.847656 -3.441406 6.671875 -4.015625 C 6.503906 -4.585938 6.410156 -5.09375 6.390625 -5.53125 C 6.828125 -5.6875 7.253906 -5.9375 7.671875 -6.28125 C 8.085938 -6.632812 8.441406 -7.035156 8.734375 -7.484375 C 9.035156 -7.941406 9.234375 -8.398438 9.328125 -8.859375 C 9.429688 -9.316406 9.375 -9.753906 9.15625 -10.171875 C 8.945312 -10.585938 8.523438 -10.921875 7.890625 -11.171875 L 6.140625 -10.21875 C 6.035156 -9.5 5.925781 -8.753906 5.8125 -7.984375 C 5.707031 -7.210938 5.617188 -6.46875 5.546875 -5.75 C 5.484375 -5.039062 5.441406 -4.410156 5.421875 -3.859375 C 5.410156 -3.253906 5.46875 -2.832031 5.59375 -2.59375 C 5.71875 -2.363281 6.039062 -2.390625 6.5625 -2.671875 L 6.984375 -1.96875 L 3.203125 0.390625 C 2.773438 0.0351562 2.4375 -0.457031 2.1875 -1.09375 C 1.945312 -1.726562 1.890625 -2.503906 2.015625 -3.421875 L 2.84375 -10.234375 C 2.90625 -10.890625 2.816406 -11.316406 2.578125 -11.515625 C 2.335938 -11.722656 1.878906 -11.671875 1.203125 -11.359375 L 0.953125 -12.046875 L 5.03125 -14.71875 C 5.53125 -14.269531 5.878906 -13.8125 6.078125 -13.34375 C 6.273438 -12.875 6.347656 -12.265625 6.296875 -11.515625 L 10.359375 -14.078125 C 11.421875 -13.609375 12.179688 -13.046875 12.640625 -12.390625 C 13.109375 -11.742188 13.328125 -11.0625 13.296875 -10.34375 C 13.253906 -9.5 12.9375 -8.675781 12.34375 -7.875 C 11.75 -7.070312 10.898438 -6.390625 9.796875 -5.828125 C 9.941406 -5.171875 10.140625 -4.535156 10.390625 -3.921875 C 10.648438 -3.316406 10.9375 -2.789062 11.25 -2.34375 C 11.5625 -1.90625 11.882812 -1.597656 12.21875 -1.421875 C 12.5625 -1.242188 12.894531 -1.269531 13.21875 -1.5 Z M 13.21875 -1.5 "/></g></g></g><g fill="#0000ff" fill-opacity="1"><g transform="translate(198.328941, 303.826558)"><g><path d="M 14.484375 -5.515625 L 14.90625 -4.875 L 11.921875 -1.8125 C 11.503906 -1.738281 11.09375 -1.894531 10.6875 -2.28125 C 10.289062 -2.675781 9.898438 -3.207031 9.515625 -3.875 C 9.140625 -4.539062 8.753906 -5.265625 8.359375 -6.046875 L 7.71875 -5 L 5 -4.59375 C 4.976562 -4.15625 4.929688 -3.738281 4.859375 -3.34375 C 4.796875 -2.957031 4.695312 -2.609375 4.5625 -2.296875 C 4.125 -1.515625 3.566406 -0.765625 2.890625 -0.046875 C 2.210938 0.660156 1.390625 1.457031 0.421875 2.34375 L -0.109375 1.828125 C 0.617188 1.097656 1.140625 0.359375 1.453125 -0.390625 C 1.773438 -1.148438 1.976562 -1.898438 2.0625 -2.640625 C 2.144531 -3.390625 2.15625 -4.101562 2.09375 -4.78125 C 2.039062 -5.457031 1.992188 -6.101562 1.953125 -6.71875 C 1.921875 -7.332031 1.960938 -7.882812 2.078125 -8.375 C 2.265625 -9.238281 2.597656 -9.960938 3.078125 -10.546875 C 3.554688 -11.128906 4.078125 -11.6875 4.640625 -12.21875 C 4.566406 -12.28125 4.5 -12.328125 4.4375 -12.359375 C 4.375 -12.398438 4.304688 -12.445312 4.234375 -12.5 C 3.765625 -12.769531 3.300781 -12.867188 2.84375 -12.796875 C 2.382812 -12.734375 1.945312 -12.570312 1.53125 -12.3125 C 1.125 -12.0625 0.773438 -11.789062 0.484375 -11.5 L 0.03125 -12.0625 C 0.457031 -12.675781 0.941406 -13.28125 1.484375 -13.875 C 2.023438 -14.46875 2.582031 -14.96875 3.15625 -15.375 C 3.738281 -15.789062 4.320312 -16.046875 4.90625 -16.140625 C 5.4375 -16.210938 5.957031 -16.050781 6.46875 -15.65625 C 6.976562 -15.269531 7.472656 -14.734375 7.953125 -14.046875 C 8.429688 -13.359375 8.898438 -12.597656 9.359375 -11.765625 C 9.816406 -10.929688 10.253906 -10.097656 10.671875 -9.265625 C 11.097656 -8.441406 11.519531 -7.695312 11.9375 -7.03125 C 12.351562 -6.375 12.753906 -5.875 13.140625 -5.53125 C 13.367188 -5.363281 13.597656 -5.269531 13.828125 -5.25 C 14.066406 -5.226562 14.285156 -5.316406 14.484375 -5.515625 Z M 4.984375 -7.0625 L 7.671875 -7.46875 C 7.296875 -8.238281 6.914062 -8.976562 6.53125 -9.6875 C 6.15625 -10.394531 5.753906 -10.992188 5.328125 -11.484375 C 5.140625 -10.847656 5.03125 -10.144531 5 -9.375 C 4.96875 -8.613281 4.960938 -7.84375 4.984375 -7.0625 Z M 4.984375 -7.0625 "/></g></g></g><g fill="#0000ff" fill-opacity="1"><g transform="translate(228.585744, 296.88907)"><g><path d="M -1.09375 -12.921875 C -0.820312 -12.597656 -0.421875 -12.335938 0.109375 -12.140625 C 0.640625 -11.941406 1.238281 -11.773438 1.90625 -11.640625 C 2.570312 -11.515625 3.25 -11.394531 3.9375 -11.28125 C 4.632812 -11.164062 5.289062 -11.03125 5.90625 -10.875 C 6.53125 -10.726562 7.066406 -10.539062 7.515625 -10.3125 C 7.960938 -10.09375 8.265625 -9.796875 8.421875 -9.421875 C 8.597656 -9.015625 8.648438 -8.53125 8.578125 -7.96875 C 8.503906 -7.414062 8.332031 -6.828125 8.0625 -6.203125 C 7.800781 -5.585938 7.46875 -4.984375 7.0625 -4.390625 C 6.65625 -3.796875 6.203125 -3.265625 5.703125 -2.796875 C 5.203125 -2.328125 4.6875 -1.976562 4.15625 -1.75 C 3.738281 -1.5625 3.273438 -1.421875 2.765625 -1.328125 C 2.265625 -1.242188 1.769531 -1.222656 1.28125 -1.265625 C 0.800781 -1.316406 0.375 -1.441406 0 -1.640625 C -0.382812 -1.847656 -0.671875 -2.160156 -0.859375 -2.578125 L 0.765625 -6.40625 L 1.5 -6.3125 C 1.425781 -5.957031 1.507812 -5.691406 1.75 -5.515625 C 1.988281 -5.335938 2.335938 -5.21875 2.796875 -5.15625 C 3.253906 -5.09375 3.765625 -5.085938 4.328125 -5.140625 C 4.898438 -5.203125 5.476562 -5.3125 6.0625 -5.46875 C 6.019531 -5.726562 5.957031 -5.972656 5.875 -6.203125 C 5.789062 -6.441406 5.660156 -6.640625 5.484375 -6.796875 C 5.117188 -7.109375 4.625 -7.335938 4 -7.484375 C 3.382812 -7.640625 2.71875 -7.757812 2 -7.84375 C 1.28125 -7.9375 0.582031 -8.023438 -0.09375 -8.109375 C -0.769531 -8.203125 -1.363281 -8.335938 -1.875 -8.515625 C -2.394531 -8.691406 -2.742188 -8.957031 -2.921875 -9.3125 C -3.128906 -9.726562 -3.203125 -10.226562 -3.140625 -10.8125 C -3.078125 -11.394531 -2.929688 -11.988281 -2.703125 -12.59375 C -2.472656 -13.195312 -2.21875 -13.765625 -1.9375 -14.296875 C -1.664062 -14.828125 -1.425781 -15.253906 -1.21875 -15.578125 C -1.007812 -15.898438 -0.90625 -16.0625 -0.90625 -16.0625 C -0.707031 -16.28125 -0.410156 -16.492188 -0.015625 -16.703125 C 0.378906 -16.910156 0.816406 -17.09375 1.296875 -17.25 C 1.785156 -17.414062 2.273438 -17.53125 2.765625 -17.59375 C 3.253906 -17.65625 3.703125 -17.65625 4.109375 -17.59375 C 4.515625 -17.539062 4.820312 -17.398438 5.03125 -17.171875 L 3.359375 -12.5625 L 2.609375 -12.75 C 2.710938 -13.082031 2.644531 -13.332031 2.40625 -13.5 C 2.164062 -13.675781 1.832031 -13.765625 1.40625 -13.765625 C 0.988281 -13.765625 0.550781 -13.691406 0.09375 -13.546875 C -0.363281 -13.410156 -0.757812 -13.203125 -1.09375 -12.921875 Z M -1.09375 -12.921875 "/></g></g></g><g fill="#0000ff" fill-opacity="1"><g transform="translate(252.836651, 284.154196)"><g><path d="M -2.4375 -17.390625 C -1.625 -17.847656 -0.835938 -18.007812 -0.078125 -17.875 C 0.671875 -17.738281 1.332031 -17.367188 1.90625 -16.765625 C 2.476562 -16.160156 2.882812 -15.378906 3.125 -14.421875 C 3.363281 -13.472656 3.367188 -12.40625 3.140625 -11.21875 C 2.972656 -10.238281 2.675781 -9.394531 2.25 -8.6875 C 1.820312 -7.988281 1.316406 -7.445312 0.734375 -7.0625 L 1.140625 -6.5625 C 1.472656 -6.113281 1.785156 -5.851562 2.078125 -5.78125 C 2.378906 -5.71875 2.609375 -5.96875 2.765625 -6.53125 L 3.5625 -6.3125 L 2.546875 -1.984375 C 2.015625 -1.929688 1.4375 -2.046875 0.8125 -2.328125 C 0.195312 -2.617188 -0.394531 -3.128906 -0.96875 -3.859375 L -5.1875 -9.265625 C -5.59375 -9.773438 -5.957031 -10.015625 -6.28125 -9.984375 C -6.601562 -9.960938 -6.882812 -9.613281 -7.125 -8.9375 L -7.8125 -9.21875 L -6.796875 -14 C -6.085938 -14.019531 -5.488281 -13.925781 -5 -13.71875 C -4.519531 -13.507812 -4.023438 -13.085938 -3.515625 -12.453125 Z M 1.796875 -11.75 C 1.765625 -12.15625 1.550781 -12.535156 1.15625 -12.890625 C 0.757812 -13.253906 0.265625 -13.519531 -0.328125 -13.6875 C -0.921875 -13.851562 -1.53125 -13.851562 -2.15625 -13.6875 L -2.6875 -11.453125 L -1.5625 -10 C -1.050781 -10.0625 -0.535156 -10.171875 -0.015625 -10.328125 C 0.503906 -10.484375 0.9375 -10.6875 1.28125 -10.9375 C 1.632812 -11.1875 1.804688 -11.457031 1.796875 -11.75 Z M 1.796875 -11.75 "/></g></g></g><g fill="#0000ff" fill-opacity="1"><g transform="translate(273.672783, 265.43412)"><g><path d="M -1.6875 -12.59375 C -1.144531 -13.125 -0.546875 -13.492188 0.109375 -13.703125 C 0.773438 -13.921875 1.453125 -13.960938 2.140625 -13.828125 C 2.828125 -13.703125 3.441406 -13.351562 3.984375 -12.78125 L 4.484375 -8.03125 C 4.535156 -7.539062 4.507812 -7.003906 4.40625 -6.421875 C 4.3125 -5.835938 4.109375 -5.34375 3.796875 -4.9375 C 3.597656 -4.675781 3.347656 -4.441406 3.046875 -4.234375 C 2.742188 -4.023438 2.4375 -3.796875 2.125 -3.546875 C 1.8125 -3.304688 1.539062 -3.015625 1.3125 -2.671875 C 1.082031 -2.328125 0.945312 -1.894531 0.90625 -1.375 L 0.921875 -1.203125 L 0.1875 -1.046875 C 0.0507812 -1.367188 -0.0976562 -1.679688 -0.265625 -1.984375 C -0.441406 -2.285156 -0.707031 -2.585938 -1.0625 -2.890625 L -7.359375 -7.703125 C -7.867188 -8.085938 -8.28125 -8.21875 -8.59375 -8.09375 C -8.90625 -7.976562 -9.09375 -7.566406 -9.15625 -6.859375 L -9.875 -6.96875 L -10.109375 -11.828125 C -9.535156 -12.210938 -8.992188 -12.335938 -8.484375 -12.203125 C -7.972656 -12.066406 -7.46875 -11.820312 -6.96875 -11.46875 L -6.90625 -16 C -6.582031 -16.414062 -6.179688 -16.722656 -5.703125 -16.921875 C -5.222656 -17.117188 -4.71875 -17.207031 -4.1875 -17.1875 C -3.65625 -17.164062 -3.160156 -17.035156 -2.703125 -16.796875 C -2.242188 -16.554688 -1.875 -16.207031 -1.59375 -15.75 Z M -3 -10.59375 C -3.03125 -11.726562 -3.195312 -12.554688 -3.5 -13.078125 C -3.8125 -13.609375 -4.191406 -13.859375 -4.640625 -13.828125 C -5.097656 -13.804688 -5.554688 -13.5 -6.015625 -12.90625 L -6.09375 -10.8125 L -2.953125 -8.40625 Z M 3.4375 -9.375 C 3.3125 -9.738281 3.078125 -10.003906 2.734375 -10.171875 C 2.390625 -10.335938 1.988281 -10.40625 1.53125 -10.375 C 1.082031 -10.351562 0.625 -10.234375 0.15625 -10.015625 C -0.3125 -9.796875 -0.734375 -9.492188 -1.109375 -9.109375 C -1.492188 -8.722656 -1.789062 -8.242188 -2 -7.671875 L 0.03125 -6.109375 C 0.375 -6.523438 0.757812 -6.859375 1.1875 -7.109375 C 1.613281 -7.359375 2.015625 -7.582031 2.390625 -7.78125 C 2.765625 -7.976562 3.054688 -8.195312 3.265625 -8.4375 C 3.472656 -8.6875 3.53125 -9 3.4375 -9.375 Z M 3.4375 -9.375 "/></g></g></g><g fill="#0000ff" fill-opacity="1"><g transform="translate(289.499025, 241.397058)"><g><path d="M -1.328125 -5.84375 C -1.097656 -6.40625 -0.847656 -6.921875 -0.578125 -7.390625 C -0.316406 -7.859375 -0.0820312 -8.3125 0.125 -8.75 C 0.34375 -9.1875 0.5 -9.644531 0.59375 -10.125 C 0.695312 -10.613281 0.707031 -11.144531 0.625 -11.71875 L 1.21875 -11.953125 L 2.9375 -6.921875 C 2.65625 -6.253906 2.359375 -5.675781 2.046875 -5.1875 C 1.742188 -4.695312 1.46875 -4.253906 1.21875 -3.859375 C 0.96875 -3.460938 0.773438 -3.0625 0.640625 -2.65625 C 0.515625 -2.257812 0.488281 -1.820312 0.5625 -1.34375 L -0.046875 -1.046875 C -0.171875 -1.242188 -0.273438 -1.410156 -0.359375 -1.546875 C -0.453125 -1.679688 -0.566406 -1.8125 -0.703125 -1.9375 C -0.847656 -2.0625 -1.0625 -2.1875 -1.34375 -2.3125 L -9.03125 -5.5625 L -9.046875 -5.546875 C -9.648438 -5.796875 -10.082031 -5.828125 -10.34375 -5.640625 C -10.613281 -5.460938 -10.691406 -5.019531 -10.578125 -4.3125 L -11.3125 -4.265625 L -12.734375 -8.921875 C -12.441406 -9.253906 -12.132812 -9.472656 -11.8125 -9.578125 C -11.5 -9.691406 -11.15625 -9.71875 -10.78125 -9.65625 L -11.421875 -11.890625 C -11.328125 -12.347656 -11.15625 -12.769531 -10.90625 -13.15625 C -10.664062 -13.539062 -10.410156 -13.914062 -10.140625 -14.28125 C -9.878906 -14.65625 -9.660156 -15.039062 -9.484375 -15.4375 C -9.316406 -15.84375 -9.265625 -16.289062 -9.328125 -16.78125 L -8.8125 -16.859375 L -7.484375 -12.375 C -7.710938 -11.832031 -7.953125 -11.382812 -8.203125 -11.03125 C -8.453125 -10.6875 -8.6875 -10.390625 -8.90625 -10.140625 C -9.132812 -9.890625 -9.332031 -9.613281 -9.5 -9.3125 L -8.65625 -8.953125 L -6.21875 -7.921875 L -4.09375 -12.9375 L -3.28125 -12.59375 L -2.515625 -10.40625 L -3.96875 -6.96875 Z M -1.328125 -5.84375 "/></g></g></g><g fill="#0000ff" fill-opacity="1"><g transform="translate(298.502685, 215.264539)"><g><path d="M -1.15625 -13.25 L -0.40625 -13.65625 L 1.5625 -10.625 C 1.507812 -10.207031 1.304688 -9.800781 0.953125 -9.40625 C 0.597656 -9.019531 0.160156 -8.65625 -0.359375 -8.3125 C -0.878906 -7.976562 -1.441406 -7.675781 -2.046875 -7.40625 C -2.660156 -7.144531 -3.257812 -6.9375 -3.84375 -6.78125 C -4.425781 -6.632812 -4.9375 -6.554688 -5.375 -6.546875 C -5.507812 -6.984375 -5.75 -7.410156 -6.09375 -7.828125 C -6.4375 -8.253906 -6.828125 -8.617188 -7.265625 -8.921875 C -7.710938 -9.234375 -8.164062 -9.441406 -8.625 -9.546875 C -9.082031 -9.660156 -9.519531 -9.613281 -9.9375 -9.40625 C -10.351562 -9.207031 -10.695312 -8.800781 -10.96875 -8.1875 L -10.0625 -6.40625 C -9.34375 -6.289062 -8.597656 -6.164062 -7.828125 -6.03125 C -7.054688 -5.90625 -6.3125 -5.796875 -5.59375 -5.703125 C -4.882812 -5.617188 -4.257812 -5.554688 -3.71875 -5.515625 C -3.125 -5.492188 -2.703125 -5.539062 -2.453125 -5.65625 C -2.210938 -5.769531 -2.234375 -6.09375 -2.515625 -6.625 L -1.78125 -7.015625 L 0.46875 -3.203125 C 0.113281 -2.773438 -0.378906 -2.445312 -1.015625 -2.21875 C -1.660156 -2 -2.441406 -1.960938 -3.359375 -2.109375 L -10.15625 -3.109375 C -10.800781 -3.203125 -11.234375 -3.125 -11.453125 -2.875 C -11.671875 -2.625 -11.628906 -2.164062 -11.328125 -1.5 L -12.03125 -1.265625 L -14.59375 -5.421875 C -14.125 -5.898438 -13.648438 -6.234375 -13.171875 -6.421875 C -12.703125 -6.609375 -12.097656 -6.664062 -11.359375 -6.59375 L -13.8125 -10.71875 C -13.3125 -11.78125 -12.726562 -12.53125 -12.0625 -12.96875 C -11.394531 -13.414062 -10.707031 -13.617188 -10 -13.578125 C -9.15625 -13.503906 -8.335938 -13.160156 -7.546875 -12.546875 C -6.753906 -11.929688 -6.09375 -11.0625 -5.5625 -9.9375 C -4.90625 -10.070312 -4.269531 -10.257812 -3.65625 -10.5 C -3.039062 -10.738281 -2.503906 -11.003906 -2.046875 -11.296875 C -1.597656 -11.597656 -1.28125 -11.914062 -1.09375 -12.25 C -0.90625 -12.582031 -0.925781 -12.914062 -1.15625 -13.25 Z M -1.15625 -13.25 "/></g></g></g><g fill="#0000ff" fill-opacity="1"><g transform="translate(300.695836, 186.11562)"><g><path d="M -4.546875 -12.484375 L -3.9375 -13.0625 L -1.234375 -10.65625 C -1.191406 -10.25 -1.289062 -9.8125 -1.53125 -9.34375 C -1.769531 -8.875 -2.097656 -8.40625 -2.515625 -7.9375 C -2.929688 -7.476562 -3.394531 -7.039062 -3.90625 -6.625 C -4.425781 -6.207031 -4.945312 -5.851562 -5.46875 -5.5625 C -6 -5.269531 -6.46875 -5.0625 -6.875 -4.9375 C -7.125 -5.300781 -7.46875 -5.644531 -7.90625 -5.96875 C -8.351562 -6.300781 -8.828125 -6.5625 -9.328125 -6.75 C -9.835938 -6.9375 -10.328125 -7.019531 -10.796875 -7 C -11.265625 -6.988281 -11.675781 -6.828125 -12.03125 -6.515625 C -12.382812 -6.210938 -12.613281 -5.722656 -12.71875 -5.046875 L -11.359375 -3.578125 C -10.648438 -3.648438 -9.90625 -3.722656 -9.125 -3.796875 C -8.34375 -3.867188 -7.597656 -3.953125 -6.890625 -4.046875 C -6.179688 -4.148438 -5.554688 -4.253906 -5.015625 -4.359375 C -4.429688 -4.492188 -4.035156 -4.648438 -3.828125 -4.828125 C -3.628906 -5.003906 -3.738281 -5.3125 -4.15625 -5.75 L -3.546875 -6.3125 L -0.375 -3.21875 C -0.613281 -2.71875 -1.015625 -2.269531 -1.578125 -1.875 C -2.140625 -1.488281 -2.878906 -1.25 -3.796875 -1.15625 L -10.625 -0.375 C -11.269531 -0.28125 -11.664062 -0.09375 -11.8125 0.1875 C -11.957031 0.476562 -11.796875 0.910156 -11.328125 1.484375 L -11.9375 1.890625 L -15.5 -1.46875 C -15.175781 -2.039062 -14.804688 -2.476562 -14.390625 -2.78125 C -13.972656 -3.082031 -13.398438 -3.296875 -12.671875 -3.421875 L -16.109375 -6.78125 C -15.910156 -7.925781 -15.546875 -8.800781 -15.015625 -9.40625 C -14.484375 -10.007812 -13.867188 -10.378906 -13.171875 -10.515625 C -12.335938 -10.671875 -11.460938 -10.550781 -10.546875 -10.15625 C -9.628906 -9.757812 -8.757812 -9.09375 -7.9375 -8.15625 C -7.34375 -8.457031 -6.78125 -8.800781 -6.25 -9.1875 C -5.71875 -9.582031 -5.269531 -9.976562 -4.90625 -10.375 C -4.550781 -10.78125 -4.328125 -11.171875 -4.234375 -11.546875 C -4.140625 -11.921875 -4.242188 -12.234375 -4.546875 -12.484375 Z M -4.546875 -12.484375 "/></g></g></g><g fill="#0000ff" fill-opacity="1"><g transform="translate(295.22641, 157.455602)"><g><path d="M -7.75 -4.578125 C -7.132812 -5.222656 -6.707031 -5.804688 -6.46875 -6.328125 C -6.226562 -6.847656 -6.332031 -7.269531 -6.78125 -7.59375 L -6.234375 -8.359375 L -2.265625 -5.84375 C -2.171875 -5.613281 -2.253906 -5.304688 -2.515625 -4.921875 C -2.773438 -4.535156 -3.144531 -4.097656 -3.625 -3.609375 C -4.113281 -3.117188 -4.664062 -2.59375 -5.28125 -2.03125 C -5.90625 -1.46875 -6.53125 -0.894531 -7.15625 -0.3125 C -7.789062 0.257812 -8.382812 0.820312 -8.9375 1.375 C -9.5 1.925781 -9.960938 2.453125 -10.328125 2.953125 C -10.691406 3.453125 -10.910156 3.898438 -10.984375 4.296875 C -11.054688 4.703125 -10.925781 5.023438 -10.59375 5.265625 L -11.171875 5.9375 L -14.9375 3.546875 C -15.070312 3.222656 -15.03125 2.84375 -14.8125 2.40625 C -14.601562 1.976562 -14.273438 1.515625 -13.828125 1.015625 C -13.378906 0.523438 -12.851562 0.015625 -12.25 -0.515625 C -11.65625 -1.054688 -11.039062 -1.597656 -10.40625 -2.140625 C -9.78125 -2.679688 -9.191406 -3.210938 -8.640625 -3.734375 C -9.253906 -3.898438 -9.859375 -3.984375 -10.453125 -3.984375 C -11.054688 -3.992188 -11.609375 -3.9375 -12.109375 -3.8125 C -12.617188 -3.6875 -13.019531 -3.5 -13.3125 -3.25 C -13.601562 -3.007812 -13.738281 -2.707031 -13.71875 -2.34375 C -13.695312 -1.976562 -13.46875 -1.5625 -13.03125 -1.09375 L -13.53125 -0.515625 L -17.484375 -3 C -17.804688 -3.84375 -17.832031 -4.550781 -17.5625 -5.125 C -17.289062 -5.695312 -16.816406 -6.117188 -16.140625 -6.390625 C -15.472656 -6.671875 -14.664062 -6.796875 -13.71875 -6.765625 C -12.78125 -6.742188 -11.796875 -6.550781 -10.765625 -6.1875 C -9.734375 -5.832031 -8.726562 -5.296875 -7.75 -4.578125 Z M -7.75 -4.578125 "/></g></g></g><g clip-path="url(#814774d732)"><g clip-path="url(#37c098806f)"><g clip-path="url(#5beee7e545)"><path fill="#0000ff" d="M 262.515625 160.945312 L 244.851562 157.4375 C 240.761719 156.625 237.011719 154.667969 234.007812 151.78125 C 230.050781 147.988281 224.925781 145.695312 219.566406 145.125 C 221.195312 142.636719 223.585938 140.6875 226.417969 139.710938 C 234.070312 137.078125 239.601562 130.179688 240.507812 122.136719 L 241.640625 112.070312 C 241.703125 111.523438 241.417969 110.996094 240.929688 110.746094 C 240.433594 110.496094 239.847656 110.582031 239.4375 110.957031 L 235.359375 114.75 C 231.773438 118.082031 227.347656 120.480469 222.632812 121.671875 C 215.476562 123.476562 208.992188 127.234375 203.847656 132.425781 L 214.644531 98.59375 C 215.027344 97.390625 214.6875 96.121094 213.75 95.273438 C 212.820312 94.425781 211.523438 94.199219 210.359375 94.703125 L 207.230469 96.046875 C 204.871094 97.0625 202.960938 98.894531 201.859375 101.207031 L 195.949219 113.597656 C 193.132812 111.925781 189.988281 110.863281 186.714844 110.582031 C 182.910156 110.257812 179.273438 108.652344 176.464844 106.0625 L 173.054688 102.917969 C 172.699219 102.59375 172.3125 102.472656 171.75 102.636719 C 171.296875 102.78125 170.960938 103.167969 170.867188 103.632812 C 169.824219 108.96875 170.824219 114.457031 173.691406 119.078125 L 174.101562 119.746094 C 174.667969 120.65625 175.160156 121.613281 175.597656 122.589844 C 174.039062 122.164062 172.414062 121.914062 170.738281 121.882812 C 163.710938 121.753906 156.792969 119.800781 150.734375 116.242188 L 145.488281 113.160156 C 145.054688 112.902344 144.507812 112.917969 144.085938 113.203125 C 143.664062 113.488281 143.445312 113.984375 143.519531 114.488281 L 144.058594 118.144531 C 144.761719 122.902344 147.378906 127 151.078125 129.695312 C 145.199219 131.847656 140.046875 135.738281 136.398438 140.890625 C 135.308594 142.425781 135.117188 144.347656 135.835938 146.074219 L 133.960938 147.695312 C 129.21875 151.785156 127.519531 158.144531 129.207031 163.917969 C 124.253906 172.179688 123.804688 182.574219 128.113281 191.210938 L 130.046875 195.085938 C 129.707031 195.542969 129.410156 196.039062 129.214844 196.605469 C 127.308594 202.101562 128.335938 207.9375 131.601562 212.386719 L 130.902344 214.253906 C 129.429688 218.191406 129.824219 222.511719 132 226.113281 C 134 229.421875 137.234375 231.664062 140.980469 232.421875 C 141.074219 232.949219 141.199219 233.472656 141.355469 233.992188 C 142.5 237.820312 145.167969 240.894531 148.730469 242.597656 C 148.648438 243.226562 148.617188 243.871094 148.65625 244.523438 C 148.933594 249.273438 151.25 253.671875 155.019531 256.585938 C 158.550781 259.320312 163.03125 260.464844 167.425781 259.832031 C 171.03125 265.277344 177.859375 267.648438 183.96875 265.738281 C 184.84375 265.464844 185.699219 265.105469 186.527344 264.652344 L 194.035156 260.585938 C 194.308594 260.570312 194.582031 260.574219 194.855469 260.542969 C 195.78125 260.445312 196.679688 260.257812 197.546875 259.988281 C 200.644531 259.019531 203.300781 256.980469 205.066406 254.164062 C 205.613281 253.289062 206.039062 252.367188 206.40625 251.425781 L 207.671875 251.691406 C 210.386719 252.261719 213.117188 252.125 215.671875 251.328125 C 217.199219 250.847656 218.664062 250.132812 220.023438 249.191406 C 222.429688 247.519531 224.210938 245.253906 225.375 242.667969 L 226.75 242.238281 C 231.203125 240.84375 234.78125 237.582031 236.578125 233.277344 C 237.042969 232.15625 237.371094 230.992188 237.570312 229.820312 L 237.90625 229.503906 C 244.542969 223.304688 246.871094 213.867188 243.988281 205.296875 C 244.898438 203.851562 245.519531 202.292969 245.855469 200.667969 C 249.621094 198.046875 252.125 193.992188 252.71875 189.425781 C 253.339844 184.671875 251.84375 179.90625 248.617188 176.367188 L 248.53125 176.269531 C 248.695312 173.234375 248.199219 170.175781 247.058594 167.332031 C 247.730469 167.199219 248.40625 167.070312 249.078125 166.902344 L 262.578125 163.519531 C 262.605469 163.511719 262.628906 163.503906 262.652344 163.496094 C 263.210938 163.320312 263.589844 162.796875 263.574219 162.207031 C 263.558594 161.589844 263.117188 161.066406 262.515625 160.949219 Z M 201.898438 138.742188 C 207.082031 131.550781 214.652344 126.398438 223.269531 124.226562 C 228.460938 122.917969 233.246094 120.3125 237.152344 116.679688 L 238.628906 115.300781 L 237.890625 121.839844 C 237.097656 128.878906 232.257812 134.914062 225.5625 137.21875 C 221.6875 138.554688 218.457031 141.367188 216.554688 144.980469 C 215.378906 145.003906 214.199219 145.074219 213.023438 145.269531 L 209.710938 145.816406 C 209.328125 145.441406 208.898438 145.113281 208.398438 144.859375 C 205.929688 143.625 203.292969 142.863281 200.609375 142.554688 L 201.773438 138.910156 Z M 239.0625 168.171875 C 241.148438 173.875 240.78125 180.15625 237.96875 185.558594 C 237.203125 187.03125 235.808594 188.023438 234.164062 188.257812 C 232.621094 188.476562 231.132812 187.984375 230 186.933594 C 229.582031 184.652344 228.738281 182.417969 227.425781 180.367188 C 226.039062 178.191406 223.746094 176.800781 221.265625 176.449219 C 222.320312 174.828125 223.136719 173.042969 223.597656 171.117188 C 224.027344 169.332031 224.152344 167.480469 224 165.652344 C 228.804688 167.371094 233.898438 168.230469 239.0625 168.167969 Z M 235.410156 192.28125 C 237.511719 197.5 236.785156 203.324219 233.46875 207.863281 C 230.144531 212.410156 224.8125 214.871094 219.203125 214.445312 L 217.308594 214.300781 C 217.738281 211.996094 217.855469 209.632812 217.644531 207.257812 C 218.242188 207.167969 218.835938 207.046875 219.414062 206.867188 C 220.703125 206.464844 221.921875 205.839844 223.023438 205.007812 C 227.769531 201.414062 230.308594 195.859375 230.304688 190.234375 C 231.609375 190.820312 233.054688 191.074219 234.539062 190.863281 C 234.632812 190.847656 234.71875 190.816406 234.8125 190.800781 Z M 232.460938 222.796875 L 231.84375 223.945312 C 230.339844 226.75 227.546875 228.351562 224.367188 228.230469 C 221.1875 228.117188 218.515625 226.3125 217.21875 223.40625 L 215.625 219.832031 C 216.042969 218.875 216.386719 217.890625 216.683594 216.894531 L 219.007812 217.066406 C 221.4375 217.25 223.828125 216.96875 226.066406 216.269531 C 229.277344 215.265625 232.144531 213.351562 234.433594 210.765625 C 235.101562 214.855469 234.433594 219.121094 232.457031 222.796875 Z M 204.917969 239 C 203.554688 238.40625 202.519531 237.296875 201.957031 235.933594 C 202.917969 234.152344 203.457031 232.128906 203.402344 230.007812 L 203.386719 229.355469 C 203.800781 229.355469 204.210938 229.402344 204.625 229.359375 C 205.421875 229.28125 206.199219 229.117188 206.949219 228.882812 C 209.402344 228.113281 211.5625 226.558594 213.070312 224.414062 C 213.433594 223.898438 213.757812 223.363281 214.082031 222.824219 L 214.816406 224.476562 C 215.828125 226.742188 217.539062 228.511719 219.636719 229.617188 C 218.914062 232.820312 216.792969 235.527344 213.785156 236.953125 L 209.644531 238.921875 C 208.160156 239.640625 206.429688 239.660156 204.917969 239 Z M 175.324219 253.425781 C 170.859375 252.984375 166.972656 250.523438 164.660156 246.675781 C 163.410156 244.597656 163.175781 242.125 163.867188 239.84375 C 165.019531 240.394531 166.28125 240.699219 167.582031 240.722656 C 168.554688 240.738281 169.511719 240.597656 170.421875 240.3125 C 171.929688 239.84375 173.296875 238.980469 174.382812 237.792969 L 175.265625 236.828125 C 176.382812 235.605469 177.289062 234.25 178.085938 232.832031 L 178.101562 232.882812 C 179.21875 236.449219 181.679688 239.316406 185.039062 240.957031 C 186.34375 241.59375 187.71875 241.960938 189.105469 242.15625 C 189.46875 244.585938 188.777344 247.0625 187.105469 248.894531 C 184.089844 252.21875 179.796875 253.871094 175.324219 253.429688 Z M 146.835938 209.246094 L 148.675781 207.59375 C 149.40625 211.566406 151.527344 215.210938 154.832031 217.828125 C 155.703125 218.519531 156.648438 219.058594 157.632812 219.472656 L 157.402344 220.199219 C 156.722656 222.320312 156.464844 224.492188 156.5625 226.632812 C 152.371094 226.5625 148.421875 224.644531 145.800781 221.3125 C 142.925781 217.65625 143.378906 212.355469 146.835938 209.246094 Z M 138.4375 162.238281 L 142.296875 156.554688 C 143.414062 157.050781 144.644531 157.261719 145.894531 157.058594 L 149.621094 156.449219 C 148.425781 160.378906 148.421875 164.601562 149.734375 168.605469 L 150.59375 171.230469 C 149.9375 171.839844 149.3125 172.488281 148.757812 173.214844 C 146.816406 175.753906 145.523438 178.664062 144.894531 181.714844 L 141.480469 181.402344 C 140.398438 181.300781 139.359375 181.492188 138.410156 181.871094 C 134.445312 175.945312 134.386719 168.199219 138.4375 162.238281 Z M 200.621094 157.070312 C 203.507812 163.578125 202.234375 171.210938 197.230469 176.378906 C 195.046875 178.632812 191.996094 179.808594 188.867188 179.59375 C 185.730469 179.382812 182.863281 177.8125 181.003906 175.285156 L 180.675781 174.835938 C 181.183594 174.128906 181.632812 173.386719 181.980469 172.578125 L 182.601562 171.121094 C 183.171875 169.785156 183.65625 168.410156 184.09375 167.039062 C 189.109375 162.953125 194.640625 159.609375 200.625 157.070312 Z M 219.1875 179.089844 C 221.535156 178.742188 223.925781 179.773438 225.210938 181.789062 C 229.621094 188.6875 227.964844 197.964844 221.433594 202.90625 C 219.285156 204.535156 216.554688 205.128906 213.929688 204.558594 C 211.3125 203.992188 209.09375 202.316406 207.816406 199.96875 C 210.492188 195.210938 211.023438 189.640625 209.058594 184.6875 C 209.003906 184.550781 208.921875 184.429688 208.859375 184.292969 C 209.476562 184.253906 210.09375 184.15625 210.699219 183.96875 L 211.964844 183.574219 C 214.742188 182.703125 217.210938 181.132812 219.1875 179.09375 Z M 210.910156 222.902344 C 209.382812 225.070312 206.996094 226.480469 204.355469 226.738281 C 201.71875 227.007812 199.097656 226.128906 197.164062 224.3125 L 195.070312 222.347656 C 195.101562 222.316406 195.140625 222.292969 195.171875 222.261719 C 198.671875 218.703125 200.074219 213.667969 199.03125 208.851562 C 200.585938 208.277344 202.003906 207.339844 203.121094 206.050781 L 205.539062 203.269531 C 205.796875 202.964844 206.011719 202.640625 206.253906 202.328125 C 207.949219 204.746094 210.441406 206.496094 213.367188 207.136719 C 213.914062 207.253906 214.464844 207.328125 215.011719 207.367188 C 215.53125 212.878906 214.113281 218.355469 210.910156 222.90625 Z M 173.324219 235.046875 L 172.441406 236.011719 C 171.203125 237.363281 169.464844 238.117188 167.628906 238.085938 C 165.800781 238.054688 164.074219 237.238281 162.886719 235.851562 C 159.363281 231.722656 158.25 226.171875 159.910156 221 L 160.15625 220.21875 C 161.96875 220.535156 163.847656 220.421875 165.671875 219.851562 C 165.980469 219.753906 166.285156 219.648438 166.589844 219.523438 C 167.613281 219.113281 168.546875 218.574219 169.390625 217.933594 L 169.890625 218.835938 C 171.707031 222.09375 174.511719 224.53125 177.867188 225.867188 C 177.21875 229.292969 175.691406 232.457031 173.324219 235.042969 Z M 150.851562 174.8125 C 152.703125 172.390625 155.3125 170.761719 158.238281 170.03125 C 159.496094 173.484375 161.953125 176.445312 165.210938 178.28125 C 165.441406 178.410156 165.691406 178.476562 165.929688 178.589844 C 162.847656 183.460938 161.902344 189.238281 163.125 194.695312 L 158.089844 196.164062 C 155.824219 196.824219 153.453125 196.523438 151.425781 195.316406 C 149.398438 194.113281 148.003906 192.175781 147.503906 189.867188 C 146.359375 184.59375 147.578125 179.109375 150.855469 174.816406 Z M 152.234375 167.785156 C 150.589844 162.757812 151.277344 157.316406 154.121094 152.855469 C 156.964844 148.398438 161.597656 145.476562 166.863281 144.859375 L 169.042969 144.601562 C 170.867188 144.382812 172.617188 145.132812 173.734375 146.492188 L 172.09375 146.785156 C 162.746094 148.453125 156.261719 157.179688 157.417969 166.648438 C 157.453125 166.933594 157.523438 167.207031 157.574219 167.488281 C 155.867188 167.914062 154.261719 168.578125 152.804688 169.519531 L 152.234375 167.78125 Z M 178.859375 176.8125 L 178.882812 176.84375 C 180.679688 179.28125 183.230469 180.984375 186.097656 181.761719 C 186.945312 182.9375 187.574219 184.230469 187.992188 185.617188 C 185.78125 189.640625 184.929688 194.066406 185.472656 198.347656 L 184.703125 199.777344 C 183.117188 202.71875 180.183594 204.589844 176.835938 204.765625 C 173.496094 204.945312 170.371094 203.402344 168.476562 200.648438 C 164.082031 194.242188 164.136719 185.839844 168.484375 179.457031 C 170.507812 179.902344 172.617188 179.878906 174.613281 179.253906 C 175.050781 179.117188 175.480469 178.957031 175.898438 178.769531 C 177 178.273438 177.976562 177.589844 178.863281 176.808594 Z M 189.800781 182.902344 C 189.695312 182.667969 189.589844 182.433594 189.46875 182.203125 C 189.796875 182.207031 190.125 182.199219 190.449219 182.179688 C 190.222656 182.414062 190.011719 182.65625 189.800781 182.902344 Z M 151.949219 198.445312 C 154.144531 199.242188 156.554688 199.351562 158.820312 198.691406 L 163.851562 197.222656 C 164.464844 198.929688 165.242188 200.597656 166.304688 202.144531 C 167.679688 204.152344 169.578125 205.628906 171.738281 206.507812 L 171.292969 209.796875 C 170.835938 213.113281 168.714844 215.835938 165.609375 217.085938 C 162.519531 218.339844 159.089844 217.839844 156.464844 215.765625 C 152.171875 212.363281 150.195312 206.925781 151.304688 201.5625 Z M 172.191406 217.5625 L 171.34375 216.039062 C 172.691406 214.390625 173.589844 212.378906 173.898438 210.15625 L 174.296875 207.230469 C 175.171875 207.375 176.0625 207.449219 176.972656 207.398438 C 178.015625 207.34375 179.027344 207.160156 179.988281 206.859375 C 182.558594 206.054688 184.746094 204.375 186.292969 202.113281 C 186.589844 203 186.941406 203.875 187.363281 204.726562 C 188.660156 207.320312 191.164062 209.035156 194.226562 209.421875 C 194.984375 209.515625 195.734375 209.523438 196.472656 209.453125 C 197.3125 213.394531 196.15625 217.503906 193.292969 220.414062 C 190.324219 223.429688 186.226562 224.835938 182.027344 224.269531 C 177.835938 223.699219 174.25 221.253906 172.191406 217.558594 Z M 205.476562 183.789062 C 205.945312 184.351562 206.335938 184.972656 206.605469 185.65625 C 208.6875 190.890625 207.515625 196.972656 203.546875 201.539062 L 201.132812 204.324219 C 199.507812 206.195312 197.050781 207.117188 194.5625 206.808594 C 192.382812 206.53125 190.617188 205.339844 189.71875 203.542969 C 186.925781 197.957031 187.378906 191.296875 190.933594 185.730469 C 191.605469 184.679688 192.464844 183.742188 193.488281 182.949219 C 196.03125 180.980469 199.367188 180.46875 202.273438 181.550781 C 202.28125 181.5625 202.289062 181.574219 202.296875 181.585938 C 203.175781 182.59375 204.277344 183.328125 205.476562 183.785156 Z M 198.957031 178.363281 C 199.007812 178.308594 199.070312 178.265625 199.121094 178.210938 C 199.410156 177.910156 199.636719 177.574219 199.90625 177.261719 C 200.035156 177.65625 200.160156 178.046875 200.324219 178.421875 C 199.867188 178.375 199.414062 178.351562 198.957031 178.363281 Z M 178.3125 171.230469 C 178.582031 171.328125 178.878906 171.332031 179.148438 171.246094 C 179.335938 171.1875 179.515625 171.082031 179.667969 170.9375 C 179.746094 170.859375 179.832031 170.789062 179.910156 170.714844 L 179.554688 171.546875 C 178.640625 173.699219 176.953125 175.414062 174.816406 176.371094 C 172.152344 177.566406 169.039062 177.417969 166.496094 175.984375 C 162.941406 173.984375 160.527344 170.375 160.035156 166.332031 C 159.046875 158.253906 164.554688 150.804688 172.558594 149.382812 L 174.929688 148.960938 L 177.449219 170.144531 C 177.507812 170.644531 177.84375 171.0625 178.3125 171.230469 Z M 175.078125 144.109375 C 173.953125 143.046875 172.53125 142.332031 170.988281 142.066406 C 171.308594 140.996094 171.34375 139.855469 170.984375 138.746094 C 170.785156 138.128906 170.457031 137.589844 170.085938 137.089844 C 172.28125 138.660156 174.203125 140.617188 175.757812 142.917969 C 175.480469 143.289062 175.253906 143.6875 175.082031 144.109375 Z M 168.476562 139.554688 C 168.753906 140.414062 168.613281 141.3125 168.136719 142.058594 L 166.546875 142.25 C 160.496094 142.960938 155.167969 146.316406 151.894531 151.441406 C 151.449219 152.140625 151.058594 152.867188 150.703125 153.605469 L 145.460938 154.460938 C 144.203125 154.667969 142.984375 154.246094 142.121094 153.304688 C 141.257812 152.363281 140.941406 151.113281 141.253906 149.875 C 143.671875 140.339844 153.421875 134.453125 162.980469 136.75 L 166.316406 137.550781 C 167.34375 137.796875 168.152344 138.542969 168.472656 139.550781 Z M 141.238281 184.023438 L 144.53125 184.328125 C 144.371094 186.34375 144.480469 188.398438 144.921875 190.421875 C 145.519531 193.183594 147.203125 195.582031 149.523438 197.167969 L 148.71875 201.027344 C 148.496094 202.113281 148.417969 203.203125 148.402344 204.289062 L 145.234375 207.136719 L 143.582031 205.683594 C 138.390625 201.136719 135.871094 194.339844 136.84375 187.503906 C 137.148438 185.355469 139.078125 183.832031 141.238281 184.023438 Z M 186.191406 238.589844 C 183.488281 237.269531 181.507812 234.960938 180.609375 232.09375 L 179.707031 229.210938 C 179.992188 228.371094 180.207031 227.507812 180.386719 226.628906 C 180.808594 226.722656 181.234375 226.820312 181.667969 226.878906 C 184.039062 227.199219 186.386719 226.996094 188.578125 226.308594 C 190.164062 225.8125 191.65625 225.039062 193.027344 224.054688 L 195.355469 226.238281 C 196.878906 227.667969 198.75 228.585938 200.738281 229.050781 L 200.761719 230.078125 C 200.863281 234.03125 198.441406 237.621094 194.738281 239.003906 C 191.910156 240.046875 188.886719 239.910156 186.183594 238.59375 Z M 221.035156 170.507812 C 219.839844 175.484375 216.0625 179.527344 211.175781 181.058594 L 209.910156 181.453125 C 207.882812 182.089844 205.675781 181.460938 204.28125 179.855469 C 202.957031 178.328125 202.148438 176.390625 201.960938 174.382812 C 205.214844 168.859375 205.679688 162.078125 203.050781 156.085938 C 203.152344 156.042969 203.25 156 203.355469 155.960938 L 207.097656 154.558594 C 211.152344 158.875 215.957031 162.238281 221.199219 164.542969 C 221.542969 166.511719 221.503906 168.558594 221.039062 170.507812 Z M 206.976562 151.792969 L 202.425781 153.5 C 194.015625 156.660156 186.402344 161.28125 179.753906 167.257812 L 177.296875 146.582031 C 177.179688 145.605469 177.535156 144.671875 178.269531 144.015625 C 178.589844 143.730469 178.964844 143.519531 179.359375 143.394531 C 179.855469 143.238281 180.394531 143.21875 180.921875 143.347656 L 189.21875 145.3125 C 186.066406 148.464844 183.523438 152.21875 181.867188 156.359375 L 184.3125 157.335938 C 186.078125 152.914062 188.910156 148.925781 192.496094 145.789062 C 197.425781 144.433594 202.636719 144.929688 207.21875 147.21875 C 208.128906 147.675781 208.644531 148.558594 208.589844 149.582031 C 208.535156 150.605469 207.933594 151.429688 206.972656 151.792969 Z M 204.226562 102.34375 C 205.058594 100.605469 206.488281 99.226562 208.257812 98.46875 L 211.386719 97.125 C 211.675781 96.992188 211.875 97.136719 211.972656 97.226562 C 212.070312 97.3125 212.21875 97.507812 212.128906 97.796875 L 197.890625 142.410156 C 195.859375 142.421875 193.820312 142.683594 191.824219 143.230469 L 190.664062 142.957031 L 189.882812 138.359375 C 189.660156 137.050781 189.300781 135.796875 188.835938 134.589844 L 204.222656 102.34375 Z M 176.332031 118.355469 L 175.921875 117.691406 C 173.839844 114.335938 172.878906 110.464844 173.128906 106.578125 L 174.667969 108.003906 C 177.902344 110.984375 182.101562 112.832031 186.480469 113.210938 C 189.4375 113.460938 192.277344 114.441406 194.800781 115.984375 L 187.367188 131.5625 C 185.359375 128.195312 182.394531 125.492188 178.871094 123.8125 C 178.222656 121.90625 177.390625 120.066406 176.332031 118.359375 Z M 146.65625 117.757812 L 146.519531 116.820312 L 149.394531 118.507812 C 155.839844 122.296875 163.203125 124.375 170.679688 124.511719 C 178.921875 124.664062 185.90625 130.675781 187.289062 138.800781 L 187.882812 142.292969 L 181.53125 140.789062 C 180.25 140.480469 178.925781 140.660156 177.773438 141.226562 C 173.5625 135.140625 167.042969 131.171875 159.632812 130.324219 C 152.96875 129.5625 147.632812 124.394531 146.65625 117.757812 Z M 138.539062 142.40625 C 142.320312 137.074219 147.851562 133.199219 154.140625 131.476562 C 155.757812 132.210938 157.5 132.726562 159.339844 132.9375 C 161.6875 133.207031 163.921875 133.851562 166.019531 134.773438 L 163.597656 134.1875 C 153.59375 131.789062 143.429688 137.214844 139.632812 146.492188 C 139.050781 146.222656 138.566406 145.769531 138.285156 145.160156 C 137.867188 144.25 137.964844 143.21875 138.539062 142.402344 Z M 135.675781 149.679688 L 137.414062 148.183594 C 137.828125 148.519531 138.277344 148.800781 138.777344 149 C 138.753906 149.078125 138.722656 149.152344 138.703125 149.234375 C 138.183594 151.296875 138.726562 153.457031 140.144531 155.035156 L 136.253906 160.761719 C 134.9375 162.699219 134.023438 164.808594 133.453125 166.980469 L 133.019531 166.253906 C 129.75 160.804688 130.863281 153.832031 135.679688 149.679688 Z M 130.464844 190.03125 C 126.863281 182.804688 126.9375 174.230469 130.488281 167.0625 C 130.589844 167.242188 130.652344 167.433594 130.757812 167.613281 L 132.839844 171.082031 C 132.617188 175.339844 133.742188 179.617188 136.199219 183.304688 C 135.175781 184.304688 134.445312 185.613281 134.230469 187.132812 C 133.957031 189.066406 133.929688 190.992188 134.132812 192.878906 C 133.433594 192.917969 132.757812 193.089844 132.132812 193.378906 Z M 131.695312 197.460938 C 132.132812 196.207031 133.328125 195.484375 134.589844 195.542969 C 135.65625 200.175781 138.144531 204.429688 141.839844 207.667969 L 143.464844 209.09375 C 141.988281 211.128906 141.285156 213.5625 141.316406 216.003906 C 140.046875 215.761719 138.828125 215.285156 137.734375 214.597656 C 131.941406 210.96875 129.457031 203.921875 131.695312 197.460938 Z M 134.25 224.746094 C 132.492188 221.839844 132.171875 218.351562 133.363281 215.175781 L 133.566406 214.632812 C 134.410156 215.4375 135.3125 216.191406 136.335938 216.832031 C 137.945312 217.839844 139.773438 218.460938 141.65625 218.699219 C 141.960938 219.890625 142.480469 221.03125 143.179688 222.101562 C 141.644531 224.363281 140.828125 226.960938 140.765625 229.617188 C 138.0625 228.875 135.722656 227.195312 134.246094 224.75 Z M 143.867188 233.230469 C 142.957031 230.1875 143.347656 226.984375 144.914062 224.277344 C 148.050781 227.488281 152.34375 229.277344 156.851562 229.261719 C 157.175781 230.898438 157.738281 232.484375 158.507812 233.988281 L 158.050781 234.011719 C 155.390625 234.15625 152.945312 235.320312 151.167969 237.308594 C 150.433594 238.128906 149.890625 239.058594 149.46875 240.042969 C 146.769531 238.625 144.757812 236.199219 143.867188 233.230469 Z M 156.625 254.496094 C 153.460938 252.050781 151.507812 248.351562 151.277344 244.359375 C 151.164062 242.40625 151.820312 240.523438 153.128906 239.0625 C 154.433594 237.601562 156.234375 236.742188 158.1875 236.640625 L 160.105469 236.539062 C 160.359375 236.882812 160.597656 237.234375 160.875 237.5625 C 161.089844 237.8125 161.347656 238.011719 161.585938 238.234375 C 160.328125 241.445312 160.601562 245.050781 162.390625 248.03125 C 164.324219 251.25 167.195312 253.625 170.566406 254.945312 C 170.023438 256.046875 169.007812 256.867188 167.777344 257.117188 C 163.851562 257.898438 159.785156 256.941406 156.621094 254.492188 Z M 185.269531 262.335938 C 180.054688 265.136719 173.585938 263.613281 170.074219 259.015625 C 171.429688 258.300781 172.484375 257.160156 173.078125 255.734375 C 173.726562 255.875 174.382812 255.980469 175.058594 256.050781 C 177.34375 256.273438 179.59375 256.039062 181.703125 255.378906 C 181.90625 255.316406 182.09375 255.222656 182.292969 255.152344 L 183.535156 256.433594 C 185.214844 258.167969 187.273438 259.378906 189.507812 260.039062 Z M 202.828125 252.761719 C 201.003906 255.679688 197.980469 257.558594 194.574219 257.921875 C 191.152344 258.285156 187.816406 257.074219 185.425781 254.601562 L 184.835938 253.988281 C 186.375 253.121094 187.808594 252.03125 189.042969 250.667969 C 191.113281 248.394531 192.097656 245.375 191.796875 242.261719 C 192.851562 242.195312 193.90625 242.042969 194.9375 241.71875 C 195.183594 241.644531 195.421875 241.558594 195.664062 241.46875 C 197.46875 240.792969 199.03125 239.710938 200.273438 238.351562 C 201.152344 239.679688 202.371094 240.765625 203.859375 241.417969 C 204.140625 241.542969 204.4375 241.617188 204.730469 241.707031 L 204.890625 244.84375 C 205.03125 247.640625 204.320312 250.378906 202.832031 252.765625 Z M 218.519531 247.023438 C 215.476562 249.132812 211.820312 249.871094 208.207031 249.109375 L 207.148438 248.886719 C 207.4375 247.523438 207.585938 246.125 207.515625 244.703125 L 207.378906 242.078125 C 208.148438 242.058594 208.921875 241.964844 209.667969 241.734375 C 210.042969 241.617188 210.40625 241.472656 210.765625 241.304688 L 214.902344 239.335938 C 218.535156 237.609375 221.144531 234.390625 222.117188 230.550781 C 222.308594 230.59375 222.492188 230.65625 222.6875 230.691406 C 223.945312 232.933594 224.449219 235.542969 224.070312 238.089844 C 223.523438 241.742188 221.550781 244.917969 218.519531 247.023438 Z M 234.140625 232.261719 C 232.707031 235.699219 229.898438 238.324219 226.402344 239.558594 C 226.484375 239.191406 226.621094 238.851562 226.675781 238.480469 C 227.0625 235.867188 226.679688 233.210938 225.648438 230.796875 C 226.421875 230.726562 227.183594 230.609375 227.90625 230.382812 C 230.546875 229.558594 232.792969 227.734375 234.15625 225.191406 L 234.761719 224.0625 C 235.433594 226.765625 235.238281 229.632812 234.140625 232.261719 Z M 237.707031 225.84375 C 237.546875 224.007812 237.066406 222.207031 236.261719 220.503906 C 237.15625 217.738281 237.488281 214.8125 237.234375 211.921875 L 241.128906 208.652344 C 241.441406 208.390625 241.683594 208.082031 241.96875 207.796875 C 243.523438 214.164062 241.945312 220.847656 237.710938 225.84375 Z M 239.433594 206.636719 L 236.738281 208.894531 C 236.667969 208.589844 236.589844 208.285156 236.503906 207.984375 C 239.539062 202.941406 240.074219 196.835938 237.839844 191.300781 L 237.28125 189.914062 C 237.996094 189.507812 238.628906 188.976562 239.179688 188.355469 L 241.050781 190.707031 C 244.941406 195.613281 244.230469 202.609375 239.433594 206.632812 Z M 250.101562 189.085938 C 249.699219 192.140625 248.289062 194.917969 246.136719 197.035156 C 246.011719 194.917969 245.390625 192.832031 244.289062 190.898438 L 247.402344 182.03125 C 247.644531 181.339844 247.84375 180.636719 248.011719 179.925781 C 249.757812 182.621094 250.523438 185.851562 250.097656 189.085938 Z M 244.917969 181.160156 L 242.4375 188.226562 L 240.65625 185.984375 C 243.332031 180.355469 243.730469 173.964844 241.792969 168.058594 C 242.652344 167.996094 243.515625 167.90625 244.375 167.785156 C 246.226562 171.996094 246.445312 176.8125 244.917969 181.160156 Z M 248.433594 164.347656 C 234.332031 167.878906 219.566406 163.625 209.488281 153.261719 C 210.492188 152.375 211.144531 151.140625 211.21875 149.722656 C 211.246094 149.21875 211.195312 148.734375 211.085938 148.261719 L 213.441406 147.875 C 220.21875 146.761719 227.222656 148.933594 232.175781 153.6875 C 235.542969 156.921875 239.746094 159.113281 244.332031 160.023438 L 256.25 162.390625 Z M 248.433594 164.347656 " fill-opacity="1" fill-rule="nonzero"/></g></g></g></svg>