<svg xmlns="http://www.w3.org/2000/svg" xmlns:xlink="http://www.w3.org/1999/xlink" width="300" zoomAndPan="magnify" viewBox="0 0 224.87999 225" height="300" preserveAspectRatio="xMidYMid meet" version="1.0"><defs><g/><clipPath id="347c7e157a"><path d="M 0 0.0585938 L 224.761719 0.0585938 L 224.761719 224.9375 L 0 224.9375 Z M 0 0.0585938 " clip-rule="nonzero"/></clipPath><clipPath id="126b343b93"><path d="M 207 85 L 224.761719 85 L 224.761719 102 L 207 102 Z M 207 85 " clip-rule="nonzero"/></clipPath><clipPath id="5cd8295f30"><path d="M 48 7 L 187 7 L 187 180 L 48 180 Z M 48 7 " clip-rule="nonzero"/></clipPath><clipPath id="858194f7a8"><path d="M 22.886719 37.355469 L 161.675781 -6.066406 L 209.800781 147.746094 L 71.011719 191.167969 Z M 22.886719 37.355469 " clip-rule="nonzero"/></clipPath><clipPath id="0dcf309bf4"><path d="M 22.886719 37.355469 L 161.675781 -6.066406 L 209.800781 147.746094 L 71.011719 191.167969 Z M 22.886719 37.355469 " clip-rule="nonzero"/></clipPath></defs><g clip-path="url(#347c7e157a)"><path fill="#ffffff" d="M 0 0.0585938 L 224.878906 0.0585938 L 224.878906 224.941406 L 0 224.941406 Z M 0 0.0585938 " fill-opacity="1" fill-rule="nonzero"/><path fill="#ffffff" d="M 0 0.0585938 L 224.878906 0.0585938 L 224.878906 224.941406 L 0 224.941406 Z M 0 0.0585938 " fill-opacity="1" fill-rule="nonzero"/></g><g fill="#0000ff" fill-opacity="1"><g transform="translate(11.02572, 59.88991)"><g><path d="M 8.046875 12.421875 C 8.140625 12.046875 8.257812 11.671875 8.40625 11.296875 C 8.5625 10.921875 8.734375 10.535156 8.921875 10.140625 L 1.921875 7.40625 C 1.335938 7.164062 0.910156 7.09375 0.640625 7.1875 C 0.378906 7.289062 0.316406 7.640625 0.453125 8.234375 L -0.3125 8.453125 L -1.65625 4.21875 C -1.21875 3.882812 -0.664062 3.679688 0 3.609375 C 0.675781 3.535156 1.441406 3.664062 2.296875 4 L 10.5 7.234375 C 10.863281 6.546875 11.140625 5.894531 11.328125 5.28125 C 11.523438 4.675781 11.578125 4.097656 11.484375 3.546875 L 12.234375 3.390625 L 13.21875 7.765625 C 13.125 8.265625 12.941406 8.800781 12.671875 9.375 C 12.410156 9.945312 12.109375 10.53125 11.765625 11.125 C 11.421875 11.71875 11.09375 12.304688 10.78125 12.890625 C 10.476562 13.472656 10.238281 14.035156 10.0625 14.578125 C 9.894531 15.128906 9.863281 15.640625 9.96875 16.109375 L 9.359375 16.390625 Z M 8.046875 12.421875 "/></g></g></g><g fill="#0000ff" fill-opacity="1"><g transform="translate(3.077057, 85.034876)"><g><path d="M 1.734375 13.859375 L 1.046875 14.265625 L -1.3125 10.515625 C -0.957031 10.078125 -0.46875 9.738281 0.15625 9.5 C 0.789062 9.269531 1.566406 9.222656 2.484375 9.359375 L 5.15625 9.6875 L 4.375 8.765625 L 4.78125 5.46875 C 4.601562 5.457031 4.4375 5.445312 4.28125 5.4375 C 4.132812 5.4375 3.984375 5.429688 3.828125 5.421875 C 3.234375 5.398438 2.816406 5.453125 2.578125 5.578125 C 2.347656 5.710938 2.367188 6.039062 2.640625 6.5625 L 1.953125 6.984375 L -0.40625 3.21875 C -0.0507812 2.789062 0.4375 2.457031 1.0625 2.21875 C 1.695312 1.976562 2.472656 1.921875 3.390625 2.046875 L 10.171875 2.875 C 10.804688 2.945312 11.226562 2.859375 11.4375 2.609375 C 11.65625 2.359375 11.601562 1.910156 11.28125 1.265625 L 12.015625 0.984375 L 14.65625 5.09375 C 14.300781 5.46875 13.953125 5.753906 13.609375 5.953125 C 13.265625 6.160156 12.863281 6.285156 12.40625 6.328125 C 11.957031 6.378906 11.40625 6.359375 10.75 6.265625 C 10.75 6.265625 10.628906 6.25 10.390625 6.21875 C 10.148438 6.195312 9.847656 6.160156 9.484375 6.109375 C 9.128906 6.066406 8.773438 6.023438 8.421875 5.984375 C 8.078125 5.941406 7.78125 5.90625 7.53125 5.875 C 7.289062 5.84375 7.171875 5.828125 7.171875 5.828125 L 6.671875 9.875 L 9.21875 10.1875 C 9.863281 10.25 10.289062 10.15625 10.5 9.90625 C 10.707031 9.664062 10.65625 9.207031 10.34375 8.53125 L 11.109375 8.296875 L 13.75 12.390625 C 13.394531 12.765625 13.046875 13.050781 12.703125 13.25 C 12.359375 13.457031 11.957031 13.582031 11.5 13.625 C 11.050781 13.664062 10.5 13.640625 9.84375 13.546875 L 2.921875 12.703125 C 2.328125 12.628906 1.910156 12.671875 1.671875 12.828125 C 1.441406 12.992188 1.460938 13.335938 1.734375 13.859375 Z M 1.734375 13.859375 "/></g></g></g><g fill="#0000ff" fill-opacity="1"><g transform="translate(1.602266, 114.414363)"><g><path d="M 4.109375 4.328125 C 4.191406 4.929688 4.238281 5.5 4.25 6.03125 C 4.257812 6.570312 4.285156 7.082031 4.328125 7.5625 C 4.367188 8.039062 4.46875 8.515625 4.625 8.984375 C 4.789062 9.453125 5.054688 9.914062 5.421875 10.375 L 5.03125 10.890625 L 1 7.4375 C 0.894531 6.71875 0.847656 6.066406 0.859375 5.484375 C 0.878906 4.910156 0.894531 4.390625 0.90625 3.921875 C 0.925781 3.453125 0.890625 3.015625 0.796875 2.609375 C 0.703125 2.203125 0.5 1.8125 0.1875 1.4375 L 0.578125 0.875 C 0.796875 0.976562 0.972656 1.0625 1.109375 1.125 C 1.242188 1.195312 1.40625 1.253906 1.59375 1.296875 C 1.78125 1.335938 2.023438 1.335938 2.328125 1.296875 L 10.578125 0.1875 L 10.5625 0.171875 C 11.207031 0.0664062 11.597656 -0.125 11.734375 -0.40625 C 11.878906 -0.6875 11.726562 -1.113281 11.28125 -1.6875 L 11.875 -2.09375 L 15.453125 1.15625 C 15.390625 1.601562 15.242188 1.953125 15.015625 2.203125 C 14.785156 2.460938 14.492188 2.660156 14.140625 2.796875 L 15.828125 4.390625 C 15.992188 4.835938 16.066406 5.285156 16.046875 5.734375 C 16.035156 6.191406 16.003906 6.644531 15.953125 7.09375 C 15.910156 7.539062 15.914062 7.984375 15.96875 8.421875 C 16.03125 8.859375 16.210938 9.269531 16.515625 9.65625 L 16.125 10 L 12.703125 6.796875 C 12.628906 6.234375 12.609375 5.738281 12.640625 5.3125 C 12.671875 4.882812 12.71875 4.503906 12.78125 4.171875 C 12.851562 3.835938 12.890625 3.5 12.890625 3.15625 L 11.96875 3.28125 L 9.359375 3.625 L 10.078125 9 L 9.203125 9.125 L 7.453125 7.65625 L 6.953125 3.953125 Z M 4.109375 4.328125 "/></g></g></g><g fill="#0000ff" fill-opacity="1"><g transform="translate(7.159007, 141.401536)"><g><path d="M 13.71875 -1.3125 C 14.394531 -0.976562 14.945312 -0.671875 15.375 -0.390625 C 15.800781 -0.109375 16.144531 0.195312 16.40625 0.53125 C 16.664062 0.875 16.882812 1.257812 17.0625 1.6875 C 17.257812 2.1875 17.300781 2.640625 17.1875 3.046875 C 17.082031 3.460938 16.914062 3.84375 16.6875 4.1875 C 16.46875 4.539062 16.253906 4.875 16.046875 5.1875 C 15.847656 5.5 15.742188 5.804688 15.734375 6.109375 C 15.722656 6.421875 15.90625 6.734375 16.28125 7.046875 L 15.828125 7.6875 L 12.59375 5.546875 C 12.375 5.222656 12.28125 4.882812 12.3125 4.53125 C 12.34375 4.175781 12.445312 3.820312 12.625 3.46875 C 12.800781 3.113281 12.988281 2.757812 13.1875 2.40625 C 13.394531 2.0625 13.5625 1.726562 13.6875 1.40625 C 13.8125 1.09375 13.84375 0.796875 13.78125 0.515625 C 13.726562 0.242188 13.507812 0 13.125 -0.21875 C 12.59375 -0.570312 11.851562 -0.660156 10.90625 -0.484375 C 9.957031 -0.304688 8.957031 0.191406 7.90625 1.015625 C 7.488281 1.378906 7.082031 1.828125 6.6875 2.359375 C 6.300781 2.890625 6 3.460938 5.78125 4.078125 C 5.570312 4.691406 5.492188 5.316406 5.546875 5.953125 C 5.609375 6.585938 5.851562 7.175781 6.28125 7.71875 C 6.71875 8.269531 7.398438 8.742188 8.328125 9.140625 L 8.0625 9.859375 C 7.164062 9.546875 6.347656 9.226562 5.609375 8.90625 C 4.867188 8.582031 4.21875 8.175781 3.65625 7.6875 C 3.101562 7.195312 2.65625 6.535156 2.3125 5.703125 C 1.96875 4.859375 1.859375 3.992188 1.984375 3.109375 C 2.109375 2.222656 2.445312 1.359375 3 0.515625 C 3.550781 -0.316406 4.316406 -1.078125 5.296875 -1.765625 C 6.035156 -2.222656 6.769531 -2.507812 7.5 -2.625 C 8.238281 -2.75 8.972656 -2.753906 9.703125 -2.640625 C 10.441406 -2.535156 11.144531 -2.359375 11.8125 -2.109375 C 12.488281 -1.867188 13.125 -1.601562 13.71875 -1.3125 Z M 13.71875 -1.3125 "/></g></g></g><g fill="#0000ff" fill-opacity="1"><g transform="translate(19.833318, 167.193054)"><g><path d="M 10.90625 8.71875 L 10.703125 9.5 L 6.390625 8.453125 C 6.335938 7.898438 6.453125 7.316406 6.734375 6.703125 C 7.023438 6.085938 7.546875 5.507812 8.296875 4.96875 L 10.4375 3.34375 L 9.25 3.234375 L 7.234375 0.578125 C 7.097656 0.691406 6.972656 0.800781 6.859375 0.90625 C 6.753906 1.007812 6.640625 1.109375 6.515625 1.203125 C 6.078125 1.609375 5.816406 1.941406 5.734375 2.203125 C 5.660156 2.460938 5.90625 2.679688 6.46875 2.859375 L 6.265625 3.640625 L 1.953125 2.59375 C 1.898438 2.039062 2.019531 1.457031 2.3125 0.84375 C 2.601562 0.226562 3.117188 -0.351562 3.859375 -0.90625 L 9.3125 -5.03125 C 9.820312 -5.425781 10.0625 -5.785156 10.03125 -6.109375 C 10.007812 -6.429688 9.660156 -6.71875 8.984375 -6.96875 L 9.3125 -7.671875 L 14.046875 -6.5625 C 14.066406 -6.039062 14.019531 -5.585938 13.90625 -5.203125 C 13.800781 -4.828125 13.601562 -4.460938 13.3125 -4.109375 C 13.019531 -3.765625 12.613281 -3.394531 12.09375 -3 C 12.09375 -3 11.992188 -2.925781 11.796875 -2.78125 C 11.597656 -2.632812 11.351562 -2.453125 11.0625 -2.234375 C 10.78125 -2.015625 10.5 -1.796875 10.21875 -1.578125 C 9.9375 -1.367188 9.695312 -1.191406 9.5 -1.046875 C 9.300781 -0.898438 9.203125 -0.828125 9.203125 -0.828125 L 11.65625 2.421875 L 13.703125 0.875 C 14.210938 0.457031 14.457031 0.09375 14.4375 -0.21875 C 14.414062 -0.53125 14.0625 -0.816406 13.375 -1.078125 L 13.75 -1.796875 L 18.484375 -0.703125 C 18.492188 -0.179688 18.445312 0.269531 18.34375 0.65625 C 18.238281 1.039062 18.039062 1.40625 17.75 1.75 C 17.457031 2.09375 17.046875 2.457031 16.515625 2.84375 L 10.953125 7.0625 C 10.484375 7.425781 10.21875 7.75 10.15625 8.03125 C 10.09375 8.3125 10.34375 8.539062 10.90625 8.71875 Z M 10.90625 8.71875 "/></g></g></g><g fill="#0000ff" fill-opacity="1"><g transform="translate(39.256931, 189.44506)"><g><path d="M 14.15625 7.234375 L 9.8125 7.390625 L 9.734375 7.390625 C 9.554688 7.253906 9.429688 6.910156 9.359375 6.359375 C 9.296875 5.804688 9.273438 5.109375 9.296875 4.265625 C 9.316406 3.429688 9.347656 2.519531 9.390625 1.53125 C 9.441406 0.539062 9.476562 -0.472656 9.5 -1.515625 C 9.53125 -2.554688 9.539062 -3.550781 9.53125 -4.5 L 6.59375 -0.640625 C 6.195312 -0.148438 6.015625 0.226562 6.046875 0.5 C 6.078125 0.78125 6.398438 0.925781 7.015625 0.9375 L 6.96875 1.765625 L 2.578125 1.953125 C 2.367188 1.453125 2.316406 0.863281 2.421875 0.1875 C 2.535156 -0.476562 2.875 -1.179688 3.4375 -1.921875 L 7.515625 -7.3125 C 7.898438 -7.832031 8.035156 -8.242188 7.921875 -8.546875 C 7.816406 -8.847656 7.398438 -9.03125 6.671875 -9.09375 L 6.859375 -9.859375 L 11.765625 -10.109375 C 12.054688 -9.878906 12.285156 -9.5 12.453125 -8.96875 C 12.617188 -8.4375 12.734375 -7.800781 12.796875 -7.0625 C 12.867188 -6.320312 12.898438 -5.515625 12.890625 -4.640625 C 12.890625 -3.765625 12.878906 -2.875 12.859375 -1.96875 C 12.847656 -1.0625 12.820312 -0.175781 12.78125 0.6875 L 14.734375 -1.890625 C 15.117188 -2.421875 15.253906 -2.832031 15.140625 -3.125 C 15.035156 -3.425781 14.625 -3.609375 13.90625 -3.671875 L 14.0625 -4.453125 L 18.921875 -4.6875 C 19.066406 -4.1875 19.144531 -3.734375 19.15625 -3.328125 C 19.164062 -2.929688 19.082031 -2.523438 18.90625 -2.109375 C 18.726562 -1.703125 18.4375 -1.234375 18.03125 -0.703125 L 13.96875 4.671875 C 13.738281 4.960938 13.566406 5.238281 13.453125 5.5 C 13.335938 5.757812 13.335938 5.972656 13.453125 6.140625 C 13.566406 6.304688 13.8125 6.390625 14.1875 6.390625 Z M 14.15625 7.234375 "/></g></g></g><g fill="#0000ff" fill-opacity="1"><g transform="translate(65.573572, 206.481449)"><g><path d="M 11.546875 -11.734375 C 12.367188 -11.398438 13.046875 -10.929688 13.578125 -10.328125 C 14.109375 -9.734375 14.503906 -9.050781 14.765625 -8.28125 C 15.023438 -7.519531 15.148438 -6.734375 15.140625 -5.921875 C 15.128906 -5.109375 14.976562 -4.328125 14.6875 -3.578125 C 14.40625 -2.828125 13.988281 -2.15625 13.4375 -1.5625 C 12.894531 -0.96875 12.21875 -0.515625 11.40625 -0.203125 L 4.671875 1.859375 C 4.234375 1.492188 3.835938 1 3.484375 0.375 C 3.140625 -0.238281 2.867188 -0.925781 2.671875 -1.6875 C 2.472656 -2.457031 2.359375 -3.242188 2.328125 -4.046875 C 2.304688 -4.859375 2.390625 -5.640625 2.578125 -6.390625 C 2.773438 -7.140625 3.101562 -7.8125 3.5625 -8.40625 C 4.03125 -9.007812 4.632812 -9.472656 5.375 -9.796875 Z M 8.734375 -0.40625 C 9.210938 -0.789062 9.625 -1.300781 9.96875 -1.9375 C 10.3125 -2.582031 10.554688 -3.285156 10.703125 -4.046875 C 10.847656 -4.804688 10.878906 -5.550781 10.796875 -6.28125 C 10.722656 -7.019531 10.492188 -7.679688 10.109375 -8.265625 C 9.734375 -8.859375 9.175781 -9.300781 8.4375 -9.59375 C 7.988281 -9.394531 7.609375 -9.050781 7.296875 -8.5625 C 6.984375 -8.082031 6.753906 -7.53125 6.609375 -6.90625 C 6.460938 -6.289062 6.394531 -5.644531 6.40625 -4.96875 C 6.425781 -4.289062 6.523438 -3.640625 6.703125 -3.015625 C 6.878906 -2.398438 7.132812 -1.863281 7.46875 -1.40625 C 7.800781 -0.945312 8.222656 -0.613281 8.734375 -0.40625 Z M 8.734375 -0.40625 "/></g></g></g><g fill="#0000ff" fill-opacity="1"><g transform="translate(92.700288, 215.13556)"><g><path d="M 13.171875 -1.5 L 13.59375 -0.78125 L 10.625 1.28125 C 10.207031 1.238281 9.800781 1.046875 9.40625 0.703125 C 9.019531 0.359375 8.644531 -0.0664062 8.28125 -0.578125 C 7.925781 -1.097656 7.609375 -1.65625 7.328125 -2.25 C 7.046875 -2.84375 6.820312 -3.425781 6.65625 -4 C 6.488281 -4.570312 6.394531 -5.078125 6.375 -5.515625 C 6.800781 -5.679688 7.222656 -5.9375 7.640625 -6.28125 C 8.066406 -6.625 8.425781 -7.019531 8.71875 -7.46875 C 9.007812 -7.925781 9.203125 -8.382812 9.296875 -8.84375 C 9.398438 -9.300781 9.34375 -9.734375 9.125 -10.140625 C 8.914062 -10.554688 8.488281 -10.882812 7.84375 -11.125 L 6.125 -10.1875 C 6.019531 -9.46875 5.910156 -8.722656 5.796875 -7.953125 C 5.691406 -7.191406 5.601562 -6.453125 5.53125 -5.734375 C 5.46875 -5.023438 5.421875 -4.394531 5.390625 -3.84375 C 5.390625 -3.25 5.445312 -2.832031 5.5625 -2.59375 C 5.6875 -2.363281 6.007812 -2.382812 6.53125 -2.65625 L 6.96875 -1.984375 L 3.203125 0.390625 C 2.773438 0.0351562 2.4375 -0.453125 2.1875 -1.078125 C 1.945312 -1.710938 1.890625 -2.488281 2.015625 -3.40625 L 2.84375 -10.203125 C 2.90625 -10.859375 2.8125 -11.285156 2.5625 -11.484375 C 2.320312 -11.691406 1.867188 -11.640625 1.203125 -11.328125 L 0.953125 -12.015625 L 5.03125 -14.671875 C 5.507812 -14.222656 5.847656 -13.765625 6.046875 -13.296875 C 6.242188 -12.828125 6.320312 -12.222656 6.28125 -11.484375 L 10.34375 -14.03125 C 11.394531 -13.5625 12.148438 -13 12.609375 -12.34375 C 13.066406 -11.695312 13.28125 -11.019531 13.25 -10.3125 C 13.195312 -9.476562 12.875 -8.65625 12.28125 -7.84375 C 11.695312 -7.039062 10.851562 -6.363281 9.75 -5.8125 C 9.914062 -5.15625 10.125 -4.523438 10.375 -3.921875 C 10.625 -3.316406 10.90625 -2.789062 11.21875 -2.34375 C 11.53125 -1.894531 11.851562 -1.582031 12.1875 -1.40625 C 12.53125 -1.238281 12.859375 -1.269531 13.171875 -1.5 Z M 13.171875 -1.5 "/></g></g></g><g fill="#0000ff" fill-opacity="1"><g transform="translate(121.871903, 216.615429)"><g><path d="M 14.4375 -5.5 L 14.859375 -4.875 L 11.890625 -1.796875 C 11.472656 -1.734375 11.066406 -1.894531 10.671875 -2.28125 C 10.273438 -2.675781 9.882812 -3.203125 9.5 -3.859375 C 9.113281 -4.523438 8.726562 -5.25 8.34375 -6.03125 L 7.6875 -4.984375 L 4.984375 -4.578125 C 4.960938 -4.140625 4.914062 -3.726562 4.84375 -3.34375 C 4.78125 -2.957031 4.679688 -2.609375 4.546875 -2.296875 C 4.109375 -1.503906 3.550781 -0.753906 2.875 -0.046875 C 2.207031 0.660156 1.390625 1.453125 0.421875 2.328125 L -0.109375 1.828125 C 0.617188 1.097656 1.140625 0.359375 1.453125 -0.390625 C 1.773438 -1.148438 1.976562 -1.898438 2.0625 -2.640625 C 2.144531 -3.378906 2.15625 -4.085938 2.09375 -4.765625 C 2.039062 -5.441406 1.992188 -6.085938 1.953125 -6.703125 C 1.921875 -7.316406 1.960938 -7.867188 2.078125 -8.359375 C 2.253906 -9.210938 2.578125 -9.929688 3.046875 -10.515625 C 3.523438 -11.097656 4.046875 -11.648438 4.609375 -12.171875 C 4.546875 -12.234375 4.484375 -12.285156 4.421875 -12.328125 C 4.359375 -12.367188 4.289062 -12.410156 4.21875 -12.453125 C 3.75 -12.722656 3.285156 -12.820312 2.828125 -12.75 C 2.367188 -12.675781 1.9375 -12.515625 1.53125 -12.265625 C 1.125 -12.015625 0.769531 -11.75 0.46875 -11.46875 L 0.03125 -12.03125 C 0.457031 -12.632812 0.9375 -13.234375 1.46875 -13.828125 C 2.007812 -14.421875 2.570312 -14.921875 3.15625 -15.328125 C 3.738281 -15.742188 4.320312 -15.992188 4.90625 -16.078125 C 5.425781 -16.160156 5.9375 -16.003906 6.4375 -15.609375 C 6.945312 -15.222656 7.441406 -14.6875 7.921875 -14 C 8.410156 -13.320312 8.878906 -12.566406 9.328125 -11.734375 C 9.785156 -10.898438 10.226562 -10.066406 10.65625 -9.234375 C 11.082031 -8.398438 11.5 -7.65625 11.90625 -7 C 12.320312 -6.34375 12.71875 -5.847656 13.09375 -5.515625 C 13.320312 -5.347656 13.550781 -5.25 13.78125 -5.21875 C 14.019531 -5.195312 14.238281 -5.289062 14.4375 -5.5 Z M 4.984375 -7.03125 L 7.65625 -7.4375 C 7.269531 -8.207031 6.882812 -8.945312 6.5 -9.65625 C 6.125 -10.363281 5.722656 -10.960938 5.296875 -11.453125 C 5.117188 -10.816406 5.015625 -10.117188 4.984375 -9.359375 C 4.953125 -8.597656 4.953125 -7.820312 4.984375 -7.03125 Z M 4.984375 -7.03125 "/></g></g></g><g fill="#0000ff" fill-opacity="1"><g transform="translate(152.045143, 209.697103)"><g><path d="M -1.078125 -12.890625 C -0.804688 -12.566406 -0.410156 -12.304688 0.109375 -12.109375 C 0.640625 -11.910156 1.234375 -11.742188 1.890625 -11.609375 C 2.546875 -11.472656 3.222656 -11.347656 3.921875 -11.234375 C 4.617188 -11.128906 5.273438 -11 5.890625 -10.84375 C 6.503906 -10.695312 7.035156 -10.507812 7.484375 -10.28125 C 7.929688 -10.0625 8.238281 -9.765625 8.40625 -9.390625 C 8.570312 -8.984375 8.617188 -8.5 8.546875 -7.9375 C 8.484375 -7.382812 8.316406 -6.796875 8.046875 -6.171875 C 7.773438 -5.554688 7.4375 -4.953125 7.03125 -4.359375 C 6.632812 -3.765625 6.1875 -3.238281 5.6875 -2.78125 C 5.1875 -2.320312 4.675781 -1.976562 4.15625 -1.75 C 3.738281 -1.5625 3.273438 -1.421875 2.765625 -1.328125 C 2.265625 -1.242188 1.769531 -1.222656 1.28125 -1.265625 C 0.800781 -1.316406 0.375 -1.441406 0 -1.640625 C -0.382812 -1.847656 -0.671875 -2.160156 -0.859375 -2.578125 L 0.765625 -6.390625 L 1.484375 -6.296875 C 1.410156 -5.953125 1.492188 -5.6875 1.734375 -5.5 C 1.972656 -5.3125 2.320312 -5.191406 2.78125 -5.140625 C 3.238281 -5.085938 3.75 -5.085938 4.3125 -5.140625 C 4.875 -5.191406 5.453125 -5.289062 6.046875 -5.4375 C 6.003906 -5.707031 5.9375 -5.957031 5.84375 -6.1875 C 5.757812 -6.414062 5.640625 -6.613281 5.484375 -6.78125 C 5.097656 -7.082031 4.597656 -7.3125 3.984375 -7.46875 C 3.378906 -7.625 2.710938 -7.742188 1.984375 -7.828125 C 1.265625 -7.921875 0.570312 -8.007812 -0.09375 -8.09375 C -0.769531 -8.175781 -1.363281 -8.304688 -1.875 -8.484375 C -2.382812 -8.671875 -2.726562 -8.9375 -2.90625 -9.28125 C -3.113281 -9.695312 -3.1875 -10.195312 -3.125 -10.78125 C -3.0625 -11.363281 -2.914062 -11.953125 -2.6875 -12.546875 C -2.457031 -13.148438 -2.203125 -13.71875 -1.921875 -14.25 C -1.648438 -14.78125 -1.410156 -15.207031 -1.203125 -15.53125 C -1.003906 -15.851562 -0.90625 -16.015625 -0.90625 -16.015625 C -0.707031 -16.234375 -0.410156 -16.445312 -0.015625 -16.65625 C 0.378906 -16.863281 0.816406 -17.046875 1.296875 -17.203125 C 1.773438 -17.359375 2.257812 -17.472656 2.75 -17.546875 C 3.238281 -17.617188 3.679688 -17.625 4.078125 -17.5625 C 4.472656 -17.5 4.785156 -17.351562 5.015625 -17.125 L 3.34375 -12.53125 L 2.59375 -12.703125 C 2.707031 -13.046875 2.644531 -13.296875 2.40625 -13.453125 C 2.164062 -13.617188 1.832031 -13.703125 1.40625 -13.703125 C 0.988281 -13.710938 0.550781 -13.644531 0.09375 -13.5 C -0.363281 -13.363281 -0.753906 -13.160156 -1.078125 -12.890625 Z M -1.078125 -12.890625 "/></g></g></g><g fill="#0000ff" fill-opacity="1"><g transform="translate(176.229075, 196.997411)"><g><path d="M -2.4375 -17.328125 C -1.613281 -17.785156 -0.820312 -17.945312 -0.0625 -17.8125 C 0.6875 -17.675781 1.34375 -17.304688 1.90625 -16.703125 C 2.476562 -16.109375 2.882812 -15.335938 3.125 -14.390625 C 3.363281 -13.441406 3.367188 -12.367188 3.140625 -11.171875 C 2.960938 -10.203125 2.660156 -9.363281 2.234375 -8.65625 C 1.804688 -7.957031 1.300781 -7.414062 0.71875 -7.03125 L 1.125 -6.546875 C 1.46875 -6.085938 1.785156 -5.828125 2.078125 -5.765625 C 2.367188 -5.703125 2.601562 -5.953125 2.78125 -6.515625 L 3.546875 -6.296875 L 2.546875 -1.984375 C 2.015625 -1.929688 1.4375 -2.046875 0.8125 -2.328125 C 0.195312 -2.609375 -0.390625 -3.113281 -0.953125 -3.84375 L -5.15625 -9.25 C -5.570312 -9.757812 -5.941406 -10 -6.265625 -9.96875 C -6.585938 -9.9375 -6.867188 -9.582031 -7.109375 -8.90625 L -7.78125 -9.203125 L -6.765625 -13.953125 C -6.066406 -13.972656 -5.472656 -13.878906 -4.984375 -13.671875 C -4.503906 -13.460938 -4.015625 -13.046875 -3.515625 -12.421875 Z M 1.796875 -11.703125 C 1.753906 -12.109375 1.535156 -12.488281 1.140625 -12.84375 C 0.742188 -13.207031 0.253906 -13.472656 -0.328125 -13.640625 C -0.921875 -13.816406 -1.53125 -13.828125 -2.15625 -13.671875 L -2.6875 -11.40625 L -1.546875 -9.953125 C -1.046875 -10.015625 -0.535156 -10.125 -0.015625 -10.28125 C 0.503906 -10.445312 0.9375 -10.648438 1.28125 -10.890625 C 1.625 -11.140625 1.796875 -11.410156 1.796875 -11.703125 Z M 1.796875 -11.703125 "/></g></g></g><g fill="#0000ff" fill-opacity="1"><g transform="translate(197.007671, 178.32903)"><g><path d="M -1.6875 -12.5625 C -1.132812 -13.070312 -0.53125 -13.4375 0.125 -13.65625 C 0.78125 -13.882812 1.453125 -13.929688 2.140625 -13.796875 C 2.828125 -13.671875 3.441406 -13.328125 3.984375 -12.765625 L 4.46875 -8 C 4.519531 -7.519531 4.492188 -6.988281 4.390625 -6.40625 C 4.296875 -5.832031 4.09375 -5.335938 3.78125 -4.921875 C 3.582031 -4.660156 3.332031 -4.425781 3.03125 -4.21875 C 2.726562 -4.007812 2.421875 -3.785156 2.109375 -3.546875 C 1.804688 -3.304688 1.539062 -3.015625 1.3125 -2.671875 C 1.09375 -2.328125 0.957031 -1.894531 0.90625 -1.375 L 0.921875 -1.203125 L 0.1875 -1.046875 C 0.0507812 -1.367188 -0.0976562 -1.679688 -0.265625 -1.984375 C -0.441406 -2.285156 -0.707031 -2.585938 -1.0625 -2.890625 L -7.328125 -7.6875 C -7.835938 -8.0625 -8.25 -8.191406 -8.5625 -8.078125 C -8.875 -7.960938 -9.0625 -7.550781 -9.125 -6.84375 L -9.859375 -6.953125 L -10.0625 -11.796875 C -9.5 -12.179688 -8.960938 -12.304688 -8.453125 -12.171875 C -7.953125 -12.035156 -7.445312 -11.789062 -6.9375 -11.4375 L -6.875 -15.953125 C -6.550781 -16.367188 -6.148438 -16.675781 -5.671875 -16.875 C -5.203125 -17.070312 -4.703125 -17.160156 -4.171875 -17.140625 C -3.640625 -17.128906 -3.144531 -17 -2.6875 -16.75 C -2.238281 -16.507812 -1.875 -16.160156 -1.59375 -15.703125 Z M -2.984375 -10.5625 C -3.023438 -11.6875 -3.195312 -12.515625 -3.5 -13.046875 C -3.8125 -13.578125 -4.1875 -13.828125 -4.625 -13.796875 C -5.070312 -13.773438 -5.523438 -13.46875 -5.984375 -12.875 L -6.078125 -10.796875 L -2.953125 -8.390625 Z M 3.421875 -9.34375 C 3.304688 -9.71875 3.070312 -9.984375 2.71875 -10.140625 C 2.375 -10.296875 1.976562 -10.359375 1.53125 -10.328125 C 1.082031 -10.304688 0.625 -10.1875 0.15625 -9.96875 C -0.300781 -9.757812 -0.722656 -9.460938 -1.109375 -9.078125 C -1.492188 -8.691406 -1.789062 -8.222656 -2 -7.671875 L 0.03125 -6.109375 C 0.363281 -6.515625 0.738281 -6.835938 1.15625 -7.078125 C 1.582031 -7.328125 1.988281 -7.550781 2.375 -7.75 C 2.769531 -7.957031 3.070312 -8.179688 3.28125 -8.421875 C 3.488281 -8.660156 3.535156 -8.96875 3.421875 -9.34375 Z M 3.421875 -9.34375 "/></g></g></g><g fill="#0000ff" fill-opacity="1"><g transform="translate(212.790211, 154.358347)"><g><path d="M -1.328125 -5.828125 C -1.085938 -6.390625 -0.835938 -6.898438 -0.578125 -7.359375 C -0.316406 -7.828125 -0.0820312 -8.273438 0.125 -8.703125 C 0.34375 -9.140625 0.5 -9.601562 0.59375 -10.09375 C 0.695312 -10.582031 0.703125 -11.113281 0.609375 -11.6875 L 1.21875 -11.9375 L 2.9375 -6.90625 C 2.65625 -6.238281 2.359375 -5.660156 2.046875 -5.171875 C 1.742188 -4.679688 1.46875 -4.238281 1.21875 -3.84375 C 0.96875 -3.445312 0.773438 -3.046875 0.640625 -2.640625 C 0.515625 -2.242188 0.488281 -1.8125 0.5625 -1.34375 L -0.046875 -1.046875 C -0.171875 -1.242188 -0.273438 -1.410156 -0.359375 -1.546875 C -0.453125 -1.679688 -0.566406 -1.8125 -0.703125 -1.9375 C -0.835938 -2.0625 -1.046875 -2.179688 -1.328125 -2.296875 L -9 -5.5625 L -9.015625 -5.546875 C -9.609375 -5.773438 -10.039062 -5.800781 -10.3125 -5.625 C -10.582031 -5.457031 -10.660156 -5.015625 -10.546875 -4.296875 L -11.296875 -4.25 L -12.71875 -8.890625 C -12.425781 -9.222656 -12.117188 -9.441406 -11.796875 -9.546875 C -11.472656 -9.648438 -11.117188 -9.675781 -10.734375 -9.625 L -11.390625 -11.84375 C -11.296875 -12.3125 -11.125 -12.734375 -10.875 -13.109375 C -10.632812 -13.492188 -10.378906 -13.867188 -10.109375 -14.234375 C -9.835938 -14.597656 -9.617188 -14.976562 -9.453125 -15.375 C -9.285156 -15.78125 -9.234375 -16.234375 -9.296875 -16.734375 L -8.78125 -16.828125 L -7.46875 -12.328125 C -7.695312 -11.796875 -7.929688 -11.359375 -8.171875 -11.015625 C -8.421875 -10.671875 -8.65625 -10.367188 -8.875 -10.109375 C -9.101562 -9.859375 -9.304688 -9.582031 -9.484375 -9.28125 L -8.625 -8.921875 L -6.203125 -7.890625 L -4.078125 -12.890625 L -3.265625 -12.546875 L -2.515625 -10.390625 L -3.984375 -6.953125 Z M -1.328125 -5.828125 "/></g></g></g><g fill="#0000ff" fill-opacity="1"><g transform="translate(221.769018, 128.297984)"><g><path d="M -1.140625 -13.203125 L -0.421875 -13.609375 L 1.5625 -10.59375 C 1.5 -10.175781 1.289062 -9.773438 0.9375 -9.390625 C 0.59375 -9.003906 0.160156 -8.640625 -0.359375 -8.296875 C -0.878906 -7.953125 -1.441406 -7.648438 -2.046875 -7.390625 C -2.648438 -7.128906 -3.242188 -6.921875 -3.828125 -6.765625 C -4.410156 -6.617188 -4.921875 -6.539062 -5.359375 -6.53125 C -5.492188 -6.945312 -5.734375 -7.367188 -6.078125 -7.796875 C -6.421875 -8.234375 -6.8125 -8.601562 -7.25 -8.90625 C -7.6875 -9.207031 -8.132812 -9.410156 -8.59375 -9.515625 C -9.050781 -9.628906 -9.484375 -9.585938 -9.890625 -9.390625 C -10.304688 -9.191406 -10.65625 -8.773438 -10.9375 -8.140625 L -10.03125 -6.390625 C -9.3125 -6.265625 -8.566406 -6.140625 -7.796875 -6.015625 C -7.035156 -5.890625 -6.296875 -5.78125 -5.578125 -5.6875 C -4.867188 -5.59375 -4.242188 -5.53125 -3.703125 -5.5 C -3.109375 -5.46875 -2.691406 -5.507812 -2.453125 -5.625 C -2.210938 -5.738281 -2.226562 -6.066406 -2.5 -6.609375 L -1.796875 -7 L 0.46875 -3.203125 C 0.113281 -2.773438 -0.378906 -2.445312 -1.015625 -2.21875 C -1.648438 -2 -2.429688 -1.960938 -3.359375 -2.109375 L -10.125 -3.109375 C -10.769531 -3.191406 -11.203125 -3.109375 -11.421875 -2.859375 C -11.640625 -2.617188 -11.597656 -2.164062 -11.296875 -1.5 L -12 -1.265625 L -14.546875 -5.421875 C -14.078125 -5.890625 -13.601562 -6.210938 -13.125 -6.390625 C -12.65625 -6.578125 -12.054688 -6.640625 -11.328125 -6.578125 L -13.765625 -10.703125 C -13.265625 -11.742188 -12.679688 -12.488281 -12.015625 -12.9375 C -11.347656 -13.382812 -10.664062 -13.582031 -9.96875 -13.53125 C -9.132812 -13.457031 -8.320312 -13.113281 -7.53125 -12.5 C -6.738281 -11.894531 -6.078125 -11.03125 -5.546875 -9.90625 C -4.898438 -10.050781 -4.265625 -10.238281 -3.640625 -10.46875 C -3.023438 -10.707031 -2.488281 -10.972656 -2.03125 -11.265625 C -1.582031 -11.566406 -1.265625 -11.882812 -1.078125 -12.21875 C -0.898438 -12.550781 -0.921875 -12.878906 -1.140625 -13.203125 Z M -1.140625 -13.203125 "/></g></g></g><g clip-path="url(#126b343b93)"><g fill="#0000ff" fill-opacity="1"><g transform="translate(223.956103, 99.229545)"><g><path d="M -4.53125 -12.4375 L -3.9375 -13.015625 L -1.234375 -10.625 C -1.179688 -10.21875 -1.273438 -9.78125 -1.515625 -9.3125 C -1.765625 -8.851562 -2.097656 -8.390625 -2.515625 -7.921875 C -2.929688 -7.453125 -3.394531 -7.007812 -3.90625 -6.59375 C -4.414062 -6.1875 -4.929688 -5.835938 -5.453125 -5.546875 C -5.984375 -5.253906 -6.453125 -5.046875 -6.859375 -4.921875 C -7.109375 -5.285156 -7.453125 -5.628906 -7.890625 -5.953125 C -8.328125 -6.285156 -8.796875 -6.539062 -9.296875 -6.71875 C -9.804688 -6.90625 -10.296875 -6.988281 -10.765625 -6.96875 C -11.234375 -6.957031 -11.640625 -6.800781 -11.984375 -6.5 C -12.335938 -6.195312 -12.566406 -5.707031 -12.671875 -5.03125 L -11.328125 -3.5625 C -10.617188 -3.632812 -9.875 -3.707031 -9.09375 -3.78125 C -8.320312 -3.851562 -7.582031 -3.9375 -6.875 -4.03125 C -6.164062 -4.132812 -5.539062 -4.238281 -5 -4.34375 C -4.414062 -4.476562 -4.023438 -4.628906 -3.828125 -4.796875 C -3.628906 -4.972656 -3.734375 -5.285156 -4.140625 -5.734375 L -3.546875 -6.296875 L -0.375 -3.21875 C -0.613281 -2.71875 -1.007812 -2.273438 -1.5625 -1.890625 C -2.125 -1.503906 -2.863281 -1.257812 -3.78125 -1.15625 L -10.59375 -0.375 C -11.238281 -0.289062 -11.632812 -0.109375 -11.78125 0.171875 C -11.925781 0.460938 -11.765625 0.898438 -11.296875 1.484375 L -11.90625 1.890625 L -15.453125 -1.46875 C -15.128906 -2.03125 -14.757812 -2.460938 -14.34375 -2.765625 C -13.925781 -3.066406 -13.359375 -3.28125 -12.640625 -3.40625 L -16.0625 -6.765625 C -15.851562 -7.910156 -15.484375 -8.78125 -14.953125 -9.375 C -14.421875 -9.976562 -13.816406 -10.347656 -13.140625 -10.484375 C -12.296875 -10.628906 -11.414062 -10.507812 -10.5 -10.125 C -9.59375 -9.738281 -8.734375 -9.070312 -7.921875 -8.125 C -7.328125 -8.4375 -6.765625 -8.785156 -6.234375 -9.171875 C -5.703125 -9.554688 -5.253906 -9.945312 -4.890625 -10.34375 C -4.535156 -10.75 -4.3125 -11.140625 -4.21875 -11.515625 C -4.132812 -11.890625 -4.238281 -12.195312 -4.53125 -12.4375 Z M -4.53125 -12.4375 "/></g></g></g></g><g fill="#0000ff" fill-opacity="1"><g transform="translate(218.501787, 70.648676)"><g><path d="M -7.71875 -4.578125 C -7.101562 -5.222656 -6.675781 -5.800781 -6.4375 -6.3125 C -6.207031 -6.832031 -6.320312 -7.25 -6.78125 -7.5625 L -6.234375 -8.328125 L -2.265625 -5.828125 C -2.171875 -5.597656 -2.25 -5.289062 -2.5 -4.90625 C -2.757812 -4.519531 -3.128906 -4.082031 -3.609375 -3.59375 C -4.097656 -3.113281 -4.648438 -2.59375 -5.265625 -2.03125 C -5.890625 -1.46875 -6.519531 -0.898438 -7.15625 -0.328125 C -7.789062 0.242188 -8.378906 0.804688 -8.921875 1.359375 C -9.472656 1.921875 -9.929688 2.453125 -10.296875 2.953125 C -10.660156 3.453125 -10.875 3.898438 -10.9375 4.296875 C -11.007812 4.691406 -10.878906 5.007812 -10.546875 5.25 L -11.15625 5.921875 L -14.890625 3.53125 C -15.035156 3.207031 -15 2.832031 -14.78125 2.40625 C -14.570312 1.976562 -14.238281 1.515625 -13.78125 1.015625 C -13.320312 0.523438 -12.796875 0.015625 -12.203125 -0.515625 C -11.609375 -1.054688 -11.003906 -1.597656 -10.390625 -2.140625 C -9.773438 -2.679688 -9.179688 -3.207031 -8.609375 -3.71875 C -9.222656 -3.882812 -9.832031 -3.972656 -10.4375 -3.984375 C -11.039062 -3.992188 -11.585938 -3.9375 -12.078125 -3.8125 C -12.578125 -3.6875 -12.972656 -3.5 -13.265625 -3.25 C -13.554688 -3.007812 -13.691406 -2.707031 -13.671875 -2.34375 C -13.648438 -1.976562 -13.421875 -1.5625 -12.984375 -1.09375 L -13.5 -0.515625 L -17.421875 -3 C -17.742188 -3.832031 -17.769531 -4.53125 -17.5 -5.09375 C -17.238281 -5.664062 -16.769531 -6.09375 -16.09375 -6.375 C -15.414062 -6.65625 -14.609375 -6.78125 -13.671875 -6.75 C -12.742188 -6.71875 -11.757812 -6.523438 -10.71875 -6.171875 C -9.6875 -5.816406 -8.6875 -5.285156 -7.71875 -4.578125 Z M -7.71875 -4.578125 "/></g></g></g><g clip-path="url(#5cd8295f30)"><g clip-path="url(#858194f7a8)"><g clip-path="url(#0dcf309bf4)"><path fill="#0000ff" d="M 185.890625 74.125 L 168.273438 70.625 C 164.195312 69.816406 160.457031 67.867188 157.460938 64.988281 C 153.511719 61.203125 148.402344 58.917969 143.054688 58.347656 C 144.679688 55.867188 147.0625 53.921875 149.890625 52.949219 C 157.523438 50.324219 163.039062 43.445312 163.941406 35.421875 L 165.070312 25.382812 C 165.136719 24.835938 164.847656 24.308594 164.363281 24.0625 C 163.867188 23.8125 163.28125 23.898438 162.875 24.273438 L 158.804688 28.054688 C 155.234375 31.378906 150.820312 33.769531 146.113281 34.960938 C 138.976562 36.761719 132.511719 40.507812 127.382812 45.683594 L 138.148438 11.941406 C 138.53125 10.746094 138.191406 9.476562 137.257812 8.628906 C 136.328125 7.785156 135.035156 7.558594 133.875 8.0625 L 130.753906 9.402344 C 128.398438 10.414062 126.496094 12.242188 125.398438 14.550781 L 119.5 26.90625 C 116.695312 25.238281 113.558594 24.179688 110.296875 23.898438 C 106.5 23.574219 102.871094 21.972656 100.070312 19.394531 L 96.667969 16.253906 C 96.316406 15.933594 95.929688 15.8125 95.371094 15.972656 C 94.917969 16.121094 94.582031 16.503906 94.492188 16.96875 C 93.449219 22.289062 94.445312 27.761719 97.304688 32.375 L 97.714844 33.039062 C 98.28125 33.949219 98.769531 34.898438 99.207031 35.875 C 97.652344 35.449219 96.03125 35.199219 94.359375 35.167969 C 87.351562 35.039062 80.453125 33.09375 74.410156 29.542969 L 69.179688 26.46875 C 68.746094 26.214844 68.203125 26.230469 67.78125 26.511719 C 67.359375 26.796875 67.144531 27.292969 67.214844 27.792969 L 67.753906 31.441406 C 68.453125 36.1875 71.066406 40.273438 74.753906 42.960938 C 68.890625 45.109375 63.753906 48.988281 60.113281 54.125 C 59.027344 55.65625 58.835938 57.574219 59.554688 59.292969 L 57.683594 60.910156 C 52.953125 64.992188 51.261719 71.335938 52.941406 77.09375 C 48 85.332031 47.554688 95.699219 51.851562 104.3125 L 53.777344 108.175781 C 53.4375 108.628906 53.144531 109.125 52.949219 109.691406 C 51.046875 115.171875 52.074219 120.992188 55.328125 125.425781 L 54.632812 127.289062 C 53.164062 131.21875 53.558594 135.527344 55.726562 139.117188 C 57.71875 142.417969 60.949219 144.65625 64.683594 145.410156 C 64.777344 145.933594 64.902344 146.457031 65.054688 146.976562 C 66.199219 150.792969 68.859375 153.859375 72.414062 155.558594 C 72.328125 156.1875 72.300781 156.828125 72.335938 157.476562 C 72.613281 162.21875 74.925781 166.605469 78.683594 169.507812 C 82.207031 172.234375 86.671875 173.378906 91.058594 172.746094 C 94.652344 178.175781 101.464844 180.542969 107.554688 178.636719 C 108.425781 178.363281 109.28125 178.003906 110.105469 177.554688 L 117.597656 173.496094 C 117.867188 173.484375 118.140625 173.484375 118.410156 173.457031 C 119.335938 173.355469 120.234375 173.171875 121.097656 172.902344 C 124.183594 171.9375 126.835938 169.902344 128.597656 167.089844 C 129.140625 166.222656 129.566406 165.300781 129.933594 164.363281 L 131.195312 164.628906 C 133.898438 165.199219 136.625 165.0625 139.175781 164.261719 C 140.695312 163.789062 142.160156 163.074219 143.511719 162.132812 C 145.910156 160.464844 147.6875 158.207031 148.851562 155.628906 L 150.222656 155.199219 C 154.660156 153.808594 158.230469 150.554688 160.019531 146.265625 C 160.488281 145.144531 160.8125 143.984375 161.011719 142.816406 L 161.347656 142.5 C 167.964844 136.316406 170.285156 126.90625 167.414062 118.355469 C 168.320312 116.917969 168.941406 115.363281 169.273438 113.742188 C 173.03125 111.128906 175.527344 107.085938 176.121094 102.53125 C 176.738281 97.789062 175.246094 93.039062 172.027344 89.503906 L 171.945312 89.410156 C 172.109375 86.382812 171.613281 83.332031 170.476562 80.496094 C 171.144531 80.363281 171.820312 80.234375 172.488281 80.066406 L 185.953125 76.691406 C 185.980469 76.683594 186.003906 76.675781 186.027344 76.667969 C 186.582031 76.496094 186.960938 75.972656 186.945312 75.386719 C 186.929688 74.769531 186.492188 74.25 185.890625 74.128906 Z M 125.4375 51.984375 C 130.605469 44.8125 138.15625 39.671875 146.75 37.507812 C 151.929688 36.203125 156.699219 33.601562 160.59375 29.976562 L 162.066406 28.605469 L 161.332031 35.125 C 160.539062 42.144531 155.714844 48.164062 149.035156 50.464844 C 145.171875 51.796875 141.949219 54.601562 140.054688 58.207031 C 138.878906 58.226562 137.703125 58.300781 136.53125 58.492188 L 133.226562 59.035156 C 132.847656 58.664062 132.417969 58.335938 131.917969 58.085938 C 129.457031 56.851562 126.828125 56.089844 124.152344 55.789062 L 125.3125 52.152344 L 125.4375 51.980469 Z M 162.5 81.332031 C 164.578125 87.019531 164.214844 93.285156 161.410156 98.675781 C 160.644531 100.144531 159.253906 101.128906 157.613281 101.363281 C 156.074219 101.582031 154.589844 101.089844 153.460938 100.046875 C 153.046875 97.769531 152.203125 95.542969 150.894531 93.496094 C 149.511719 91.328125 147.226562 89.9375 144.75 89.589844 C 145.800781 87.972656 146.617188 86.191406 147.078125 84.273438 C 147.503906 82.492188 147.628906 80.644531 147.480469 78.820312 C 152.269531 80.535156 157.351562 81.394531 162.5 81.332031 Z M 158.855469 105.378906 C 160.957031 110.582031 160.230469 116.390625 156.917969 120.917969 C 153.609375 125.453125 148.289062 127.90625 142.695312 127.480469 L 140.804688 127.335938 C 141.234375 125.039062 141.351562 122.683594 141.140625 120.3125 C 141.738281 120.222656 142.328125 120.105469 142.90625 119.925781 C 144.1875 119.523438 145.40625 118.898438 146.503906 118.070312 C 151.238281 114.484375 153.769531 108.945312 153.765625 103.335938 C 155.070312 103.921875 156.507812 104.175781 157.988281 103.960938 C 158.082031 103.949219 158.167969 103.917969 158.261719 103.902344 L 158.859375 105.375 Z M 155.917969 135.808594 L 155.300781 136.957031 C 153.800781 139.753906 151.015625 141.351562 147.84375 141.230469 C 144.671875 141.117188 142.007812 139.316406 140.714844 136.417969 L 139.125 132.855469 C 139.542969 131.898438 139.886719 130.917969 140.179688 129.921875 L 142.5 130.097656 C 144.925781 130.28125 147.308594 130 149.539062 129.300781 C 152.742188 128.296875 155.601562 126.390625 157.886719 123.8125 C 158.550781 127.890625 157.882812 132.144531 155.914062 135.8125 Z M 128.445312 151.972656 C 127.089844 151.378906 126.054688 150.269531 125.496094 148.914062 C 126.453125 147.132812 126.988281 145.117188 126.9375 143 L 126.917969 142.351562 C 127.332031 142.351562 127.742188 142.398438 128.15625 142.359375 C 128.953125 142.277344 129.726562 142.113281 130.472656 141.878906 C 132.921875 141.113281 135.074219 139.5625 136.578125 137.425781 C 136.9375 136.910156 137.265625 136.375 137.585938 135.839844 L 138.320312 137.484375 C 139.328125 139.746094 141.035156 141.511719 143.125 142.609375 C 142.40625 145.808594 140.289062 148.507812 137.292969 149.929688 L 133.164062 151.890625 C 131.679688 152.609375 129.957031 152.628906 128.449219 151.96875 Z M 98.933594 166.355469 C 94.480469 165.917969 90.605469 163.460938 88.296875 159.628906 C 87.050781 157.550781 86.820312 155.085938 87.507812 152.8125 C 88.65625 153.359375 89.914062 153.664062 91.214844 153.6875 C 92.183594 153.703125 93.140625 153.5625 94.046875 153.28125 C 95.546875 152.808594 96.914062 151.953125 97.996094 150.769531 L 98.878906 149.804688 C 99.992188 148.585938 100.894531 147.234375 101.691406 145.820312 L 101.703125 145.867188 C 102.816406 149.425781 105.273438 152.285156 108.625 153.921875 C 109.921875 154.558594 111.292969 154.921875 112.679688 155.117188 C 113.039062 157.539062 112.351562 160.007812 110.683594 161.839844 C 107.675781 165.152344 103.394531 166.800781 98.933594 166.359375 Z M 70.523438 122.296875 L 72.355469 120.648438 C 73.085938 124.609375 75.199219 128.246094 78.496094 130.855469 C 79.367188 131.542969 80.308594 132.082031 81.292969 132.496094 L 81.058594 133.222656 C 80.382812 135.335938 80.125 137.503906 80.222656 139.636719 C 76.042969 139.566406 72.101562 137.652344 69.488281 134.328125 C 66.621094 130.6875 67.074219 125.398438 70.523438 122.296875 Z M 62.148438 75.414062 L 65.996094 69.746094 C 67.109375 70.246094 68.339844 70.453125 69.582031 70.25 L 73.300781 69.644531 C 72.109375 73.5625 72.105469 77.773438 73.414062 81.765625 L 74.269531 84.382812 C 73.617188 84.992188 72.992188 85.640625 72.4375 86.363281 C 70.503906 88.898438 69.214844 91.800781 68.585938 94.835938 L 65.183594 94.527344 C 64.101562 94.425781 63.066406 94.621094 62.117188 94.996094 C 58.164062 89.085938 58.109375 81.359375 62.148438 75.414062 Z M 124.164062 70.261719 C 127.039062 76.753906 125.769531 84.363281 120.78125 89.519531 C 118.605469 91.765625 115.5625 92.9375 112.4375 92.726562 C 109.3125 92.515625 106.453125 90.949219 104.601562 88.425781 L 104.273438 87.976562 C 104.777344 87.277344 105.226562 86.535156 105.570312 85.726562 L 106.191406 84.273438 C 106.761719 82.941406 107.246094 81.570312 107.679688 80.203125 C 112.683594 76.125 118.199219 72.792969 124.164062 70.261719 Z M 142.675781 92.222656 C 145.019531 91.875 147.402344 92.90625 148.683594 94.914062 C 153.085938 101.792969 151.433594 111.046875 144.921875 115.976562 C 142.777344 117.597656 140.050781 118.191406 137.433594 117.621094 C 134.828125 117.054688 132.613281 115.386719 131.339844 113.046875 C 134.007812 108.296875 134.539062 102.746094 132.574219 97.804688 C 132.523438 97.667969 132.441406 97.546875 132.378906 97.410156 C 132.992188 97.371094 133.609375 97.277344 134.214844 97.085938 L 135.476562 96.691406 C 138.246094 95.824219 140.707031 94.257812 142.679688 92.222656 Z M 134.425781 135.917969 C 132.902344 138.078125 130.519531 139.484375 127.886719 139.742188 C 125.257812 140.011719 122.644531 139.132812 120.714844 137.324219 L 118.628906 135.363281 C 118.660156 135.332031 118.695312 135.308594 118.726562 135.277344 C 122.21875 131.726562 123.617188 126.707031 122.574219 121.90625 C 124.128906 121.332031 125.542969 120.394531 126.65625 119.113281 L 129.066406 116.335938 C 129.324219 116.035156 129.539062 115.707031 129.78125 115.394531 C 131.472656 117.808594 133.957031 119.554688 136.871094 120.191406 C 137.417969 120.308594 137.96875 120.382812 138.515625 120.421875 C 139.03125 125.917969 137.617188 131.382812 134.421875 135.921875 Z M 96.941406 148.027344 L 96.058594 148.992188 C 94.824219 150.335938 93.089844 151.089844 91.257812 151.058594 C 89.4375 151.027344 87.714844 150.214844 86.53125 148.828125 C 83.015625 144.710938 81.90625 139.175781 83.558594 134.019531 L 83.808594 133.242188 C 85.617188 133.554688 87.492188 133.441406 89.308594 132.875 C 89.617188 132.777344 89.921875 132.667969 90.222656 132.546875 C 91.242188 132.136719 92.175781 131.601562 93.015625 130.960938 L 93.515625 131.859375 C 95.324219 135.109375 98.125 137.539062 101.472656 138.871094 C 100.824219 142.289062 99.300781 145.445312 96.9375 148.023438 Z M 74.527344 87.957031 C 76.375 85.542969 78.976562 83.914062 81.894531 83.1875 C 83.148438 86.632812 85.597656 89.585938 88.847656 91.414062 C 89.078125 91.542969 89.328125 91.613281 89.5625 91.726562 C 86.488281 96.578125 85.550781 102.34375 86.769531 107.785156 L 81.746094 109.25 C 79.484375 109.90625 77.121094 109.609375 75.101562 108.40625 C 73.078125 107.203125 71.6875 105.273438 71.1875 102.972656 C 70.046875 97.710938 71.265625 92.242188 74.53125 87.960938 Z M 75.910156 80.945312 C 74.265625 75.933594 74.949219 70.507812 77.789062 66.058594 C 80.625 61.613281 85.246094 58.699219 90.496094 58.085938 L 92.671875 57.824219 C 94.488281 57.609375 96.234375 58.355469 97.351562 59.710938 L 95.714844 60.003906 C 86.390625 61.667969 79.925781 70.371094 81.078125 79.8125 C 81.109375 80.097656 81.179688 80.371094 81.230469 80.652344 C 79.53125 81.074219 77.929688 81.738281 76.476562 82.679688 L 75.90625 80.945312 Z M 102.460938 89.949219 L 102.484375 89.980469 C 104.273438 92.414062 106.820312 94.109375 109.679688 94.886719 C 110.523438 96.058594 111.152344 97.347656 111.570312 98.730469 C 109.363281 102.742188 108.511719 107.15625 109.054688 111.425781 L 108.289062 112.851562 C 106.707031 115.785156 103.777344 117.652344 100.441406 117.828125 C 97.113281 118.007812 93.996094 116.46875 92.105469 113.71875 C 87.722656 107.332031 87.777344 98.953125 92.113281 92.589844 C 94.128906 93.035156 96.234375 93.007812 98.226562 92.386719 C 98.660156 92.25 99.089844 92.085938 99.507812 91.902344 C 100.605469 91.410156 101.578125 90.726562 102.464844 89.949219 Z M 113.371094 96.023438 C 113.265625 95.792969 113.160156 95.558594 113.042969 95.328125 C 113.371094 95.328125 113.695312 95.324219 114.019531 95.300781 C 113.792969 95.535156 113.582031 95.777344 113.371094 96.023438 Z M 75.621094 111.527344 C 77.808594 112.320312 80.214844 112.429688 82.476562 111.769531 L 87.492188 110.308594 C 88.101562 112.007812 88.878906 113.671875 89.9375 115.214844 C 91.3125 117.214844 93.203125 118.691406 95.359375 119.566406 L 94.910156 122.847656 C 94.457031 126.152344 92.339844 128.867188 89.246094 130.113281 C 86.164062 131.367188 82.742188 130.867188 80.125 128.796875 C 75.84375 125.40625 73.871094 119.980469 74.976562 114.636719 Z M 95.808594 130.589844 L 94.964844 129.070312 C 96.308594 127.425781 97.207031 125.421875 97.511719 123.207031 L 97.910156 120.289062 C 98.78125 120.429688 99.671875 120.503906 100.578125 120.453125 C 101.617188 120.398438 102.625 120.214844 103.582031 119.917969 C 106.148438 119.113281 108.332031 117.4375 109.875 115.183594 C 110.167969 116.066406 110.519531 116.941406 110.941406 117.789062 C 112.234375 120.375 114.730469 122.085938 117.785156 122.472656 C 118.539062 122.566406 119.289062 122.574219 120.023438 122.503906 C 120.863281 126.433594 119.710938 130.53125 116.855469 133.433594 C 113.894531 136.441406 109.804688 137.84375 105.617188 137.277344 C 101.4375 136.707031 97.859375 134.269531 95.808594 130.585938 Z M 129.003906 96.910156 C 129.472656 97.46875 129.859375 98.089844 130.132812 98.769531 C 132.207031 103.988281 131.039062 110.058594 127.082031 114.613281 L 124.671875 117.386719 C 123.054688 119.253906 120.601562 120.175781 118.121094 119.863281 C 115.945312 119.585938 114.183594 118.402344 113.289062 116.609375 C 110.503906 111.039062 110.957031 104.398438 114.503906 98.847656 C 115.167969 97.796875 116.027344 96.863281 117.050781 96.070312 C 119.585938 94.109375 122.914062 93.59375 125.8125 94.675781 C 125.820312 94.6875 125.824219 94.699219 125.835938 94.710938 C 126.710938 95.71875 127.808594 96.449219 129.007812 96.90625 Z M 122.5 91.496094 C 122.554688 91.445312 122.613281 91.398438 122.667969 91.34375 C 122.957031 91.046875 123.179688 90.710938 123.449219 90.398438 C 123.578125 90.789062 123.703125 91.179688 123.867188 91.554688 C 123.410156 91.511719 122.957031 91.484375 122.5 91.496094 Z M 101.914062 84.382812 C 102.183594 84.480469 102.476562 84.484375 102.746094 84.398438 C 102.9375 84.339844 103.117188 84.234375 103.265625 84.09375 C 103.34375 84.015625 103.429688 83.945312 103.507812 83.871094 L 103.152344 84.699219 C 102.242188 86.847656 100.558594 88.554688 98.429688 89.507812 C 95.773438 90.703125 92.667969 90.554688 90.132812 89.125 C 86.585938 87.132812 84.175781 83.53125 83.683594 79.5 C 82.703125 71.441406 88.191406 64.011719 96.175781 62.59375 L 98.539062 62.175781 L 101.050781 83.300781 C 101.109375 83.796875 101.445312 84.214844 101.914062 84.382812 Z M 98.691406 57.335938 C 97.566406 56.273438 96.148438 55.5625 94.609375 55.296875 C 94.929688 54.230469 94.960938 53.09375 94.605469 51.988281 C 94.40625 51.371094 94.082031 50.832031 93.707031 50.335938 C 95.898438 51.902344 97.816406 53.855469 99.367188 56.144531 C 99.089844 56.519531 98.863281 56.914062 98.691406 57.335938 Z M 92.105469 52.792969 C 92.382812 53.648438 92.238281 54.546875 91.765625 55.289062 L 90.183594 55.480469 C 84.148438 56.191406 78.832031 59.539062 75.566406 64.648438 C 75.121094 65.347656 74.730469 66.070312 74.378906 66.804688 L 69.152344 67.660156 C 67.898438 67.863281 66.683594 67.445312 65.820312 66.507812 C 64.957031 65.566406 64.644531 64.320312 64.957031 63.085938 C 67.367188 53.574219 77.089844 47.703125 86.621094 49.996094 L 89.949219 50.796875 C 90.976562 51.042969 91.78125 51.785156 92.101562 52.792969 Z M 64.941406 97.140625 L 68.222656 97.445312 C 68.066406 99.457031 68.171875 101.503906 68.613281 103.523438 C 69.210938 106.277344 70.886719 108.667969 73.203125 110.253906 L 72.402344 114.097656 C 72.175781 115.183594 72.097656 116.269531 72.085938 117.351562 L 68.925781 120.195312 L 67.277344 118.746094 C 62.101562 114.210938 59.585938 107.429688 60.554688 100.613281 C 60.859375 98.472656 62.785156 96.949219 64.941406 97.140625 Z M 109.769531 151.5625 C 107.078125 150.246094 105.097656 147.941406 104.203125 145.082031 L 103.304688 142.207031 C 103.585938 141.367188 103.804688 140.507812 103.984375 139.632812 C 104.40625 139.726562 104.828125 139.824219 105.261719 139.882812 C 107.625 140.203125 109.964844 139.996094 112.152344 139.3125 C 113.734375 138.820312 115.222656 138.046875 116.589844 137.066406 L 118.910156 139.242188 C 120.429688 140.667969 122.296875 141.582031 124.277344 142.050781 L 124.300781 143.070312 C 124.402344 147.015625 121.988281 150.59375 118.296875 151.972656 C 115.476562 153.015625 112.460938 152.878906 109.765625 151.566406 Z M 144.523438 83.660156 C 143.332031 88.628906 139.5625 92.660156 134.6875 94.183594 L 133.425781 94.578125 C 131.40625 95.210938 129.203125 94.585938 127.8125 92.988281 C 126.492188 91.460938 125.6875 89.53125 125.496094 87.527344 C 128.742188 82.015625 129.207031 75.253906 126.585938 69.277344 C 126.6875 69.238281 126.785156 69.195312 126.890625 69.15625 L 130.621094 67.753906 C 134.667969 72.0625 139.457031 75.414062 144.683594 77.710938 C 145.03125 79.679688 144.992188 81.71875 144.527344 83.660156 Z M 130.5 64.996094 L 125.960938 66.703125 C 117.578125 69.851562 109.984375 74.460938 103.351562 80.421875 L 100.898438 59.800781 C 100.785156 58.828125 101.140625 57.894531 101.871094 57.242188 C 102.191406 56.957031 102.5625 56.746094 102.957031 56.625 C 103.453125 56.46875 103.988281 56.449219 104.519531 56.574219 L 112.792969 58.539062 C 109.648438 61.679688 107.109375 65.421875 105.457031 69.550781 L 107.894531 70.527344 C 109.65625 66.117188 112.484375 62.140625 116.058594 59.007812 C 120.976562 57.660156 126.175781 58.152344 130.742188 60.4375 C 131.652344 60.894531 132.164062 61.773438 132.113281 62.796875 C 132.054688 63.8125 131.457031 64.636719 130.496094 64.996094 Z M 127.757812 15.683594 C 128.585938 13.949219 130.015625 12.574219 131.78125 11.820312 L 134.898438 10.480469 C 135.183594 10.347656 135.386719 10.488281 135.484375 10.578125 C 135.578125 10.667969 135.730469 10.859375 135.636719 11.148438 L 121.441406 55.640625 C 119.414062 55.652344 117.382812 55.914062 115.390625 56.460938 L 114.234375 56.1875 L 113.453125 51.601562 C 113.234375 50.296875 112.871094 49.046875 112.410156 47.84375 Z M 99.941406 31.652344 L 99.527344 30.988281 C 97.453125 27.644531 96.496094 23.78125 96.742188 19.90625 L 98.28125 21.328125 C 101.503906 24.296875 105.691406 26.140625 110.0625 26.519531 C 113.011719 26.773438 115.839844 27.746094 118.355469 29.285156 L 110.945312 44.820312 C 108.941406 41.464844 105.984375 38.769531 102.472656 37.09375 C 101.824219 35.191406 100.996094 33.355469 99.9375 31.65625 Z M 70.34375 31.054688 L 70.207031 30.121094 L 73.074219 31.804688 C 79.503906 35.582031 86.847656 37.652344 94.300781 37.792969 C 102.523438 37.945312 109.488281 43.9375 110.867188 52.039062 L 111.460938 55.527344 L 105.125 54.023438 C 103.84375 53.71875 102.523438 53.898438 101.378906 54.460938 C 97.179688 48.390625 90.675781 44.433594 83.285156 43.589844 C 76.640625 42.828125 71.316406 37.675781 70.34375 31.054688 Z M 62.246094 55.636719 C 66.019531 50.320312 71.535156 46.453125 77.804688 44.738281 C 79.421875 45.46875 81.15625 45.984375 82.992188 46.195312 C 85.332031 46.460938 87.5625 47.105469 89.652344 48.023438 L 87.238281 47.441406 C 77.261719 45.046875 67.125 50.457031 63.339844 59.714844 C 62.757812 59.445312 62.277344 58.992188 61.996094 58.382812 C 61.578125 57.476562 61.675781 56.449219 62.25 55.636719 Z M 59.394531 62.894531 L 61.128906 61.398438 C 61.542969 61.734375 61.988281 62.015625 62.484375 62.214844 C 62.464844 62.292969 62.433594 62.367188 62.414062 62.445312 C 61.894531 64.503906 62.433594 66.65625 63.847656 68.230469 L 59.96875 73.941406 C 58.65625 75.875 57.746094 77.976562 57.175781 80.144531 L 56.742188 79.421875 C 53.480469 73.984375 54.59375 67.03125 59.398438 62.890625 Z M 54.195312 103.132812 C 50.605469 95.925781 50.679688 87.375 54.222656 80.226562 C 54.320312 80.40625 54.382812 80.597656 54.488281 80.773438 L 56.5625 84.238281 C 56.34375 88.480469 57.464844 92.75 59.914062 96.425781 C 58.894531 97.421875 58.167969 98.726562 57.953125 100.246094 C 57.679688 102.171875 57.652344 104.09375 57.855469 105.972656 C 57.15625 106.015625 56.480469 106.1875 55.859375 106.472656 Z M 55.425781 110.542969 C 55.859375 109.292969 57.050781 108.574219 58.308594 108.632812 C 59.371094 113.253906 61.855469 117.492188 65.539062 120.722656 L 67.160156 122.144531 C 65.6875 124.175781 64.984375 126.601562 65.019531 129.035156 C 63.753906 128.792969 62.539062 128.320312 61.445312 127.636719 C 55.667969 124.015625 53.191406 116.984375 55.425781 110.542969 Z M 57.96875 137.757812 C 56.21875 134.855469 55.898438 131.378906 57.089844 128.210938 L 57.289062 127.667969 C 58.128906 128.46875 59.03125 129.222656 60.050781 129.863281 C 61.65625 130.867188 63.480469 131.488281 65.355469 131.726562 C 65.660156 132.914062 66.179688 134.050781 66.875 135.117188 C 65.347656 137.375 64.53125 139.964844 64.46875 142.613281 C 61.773438 141.871094 59.4375 140.195312 57.96875 137.757812 Z M 67.5625 146.214844 C 66.652344 143.179688 67.042969 139.988281 68.605469 137.289062 C 71.734375 140.492188 76.015625 142.273438 80.511719 142.257812 C 80.835938 143.890625 81.394531 145.472656 82.160156 146.972656 L 81.707031 146.996094 C 79.054688 147.136719 76.613281 148.300781 74.84375 150.28125 C 74.113281 151.101562 73.570312 152.03125 73.148438 153.007812 C 70.457031 151.59375 68.449219 149.179688 67.5625 146.214844 Z M 80.285156 167.421875 C 77.128906 164.984375 75.183594 161.296875 74.953125 157.316406 C 74.839844 155.367188 75.496094 153.488281 76.796875 152.03125 C 78.101562 150.574219 79.894531 149.71875 81.84375 149.617188 L 83.757812 149.515625 C 84.011719 149.859375 84.246094 150.210938 84.523438 150.535156 C 84.734375 150.785156 84.996094 150.984375 85.234375 151.207031 C 83.980469 154.40625 84.253906 158.007812 86.035156 160.980469 C 87.964844 164.1875 90.824219 166.554688 94.191406 167.875 C 93.648438 168.972656 92.636719 169.789062 91.40625 170.039062 C 87.492188 170.816406 83.4375 169.863281 80.28125 167.421875 Z M 108.851562 175.242188 C 103.652344 178.035156 97.199219 176.515625 93.699219 171.929688 C 95.050781 171.21875 96.101562 170.082031 96.691406 168.660156 C 97.339844 168.800781 97.996094 168.90625 98.667969 168.972656 C 100.949219 169.199219 103.195312 168.964844 105.296875 168.304688 C 105.496094 168.242188 105.6875 168.148438 105.886719 168.078125 L 107.121094 169.355469 C 108.796875 171.085938 110.851562 172.292969 113.082031 172.953125 L 108.855469 175.242188 Z M 126.363281 165.691406 C 124.546875 168.605469 121.53125 170.476562 118.132812 170.839844 C 114.722656 171.203125 111.394531 169.996094 109.011719 167.527344 L 108.417969 166.917969 C 109.957031 166.050781 111.386719 164.964844 112.617188 163.609375 C 114.683594 161.339844 115.664062 158.328125 115.363281 155.222656 C 116.414062 155.15625 117.464844 155.003906 118.496094 154.683594 C 118.738281 154.605469 118.980469 154.523438 119.21875 154.433594 C 121.019531 153.757812 122.574219 152.675781 123.816406 151.324219 C 124.691406 152.648438 125.90625 153.730469 127.394531 154.382812 C 127.671875 154.503906 127.96875 154.582031 128.257812 154.671875 L 128.421875 157.796875 C 128.5625 160.589844 127.851562 163.320312 126.367188 165.695312 Z M 142.011719 159.972656 C 138.980469 162.078125 135.332031 162.808594 131.726562 162.054688 L 130.671875 161.832031 C 130.960938 160.46875 131.109375 159.074219 131.039062 157.65625 L 130.902344 155.039062 C 131.671875 155.019531 132.441406 154.929688 133.1875 154.695312 C 133.558594 154.578125 133.921875 154.433594 134.277344 154.269531 L 138.40625 152.304688 C 142.027344 150.582031 144.632812 147.371094 145.601562 143.542969 C 145.792969 143.585938 145.972656 143.648438 146.167969 143.683594 C 147.421875 145.917969 147.925781 148.523438 147.546875 151.0625 C 147.003906 154.707031 145.035156 157.871094 142.011719 159.972656 Z M 157.59375 145.25 C 156.160156 148.675781 153.359375 151.296875 149.875 152.527344 C 149.953125 152.164062 150.089844 151.824219 150.148438 151.449219 C 150.53125 148.847656 150.148438 146.195312 149.125 143.789062 C 149.894531 143.71875 150.652344 143.601562 151.375 143.375 C 154.003906 142.550781 156.246094 140.734375 157.609375 138.199219 L 158.210938 137.074219 C 158.882812 139.769531 158.683594 142.628906 157.59375 145.25 Z M 161.148438 138.847656 C 160.988281 137.019531 160.507812 135.222656 159.707031 133.523438 C 160.597656 130.765625 160.933594 127.847656 160.679688 124.964844 L 164.5625 121.707031 C 164.875 121.441406 165.113281 121.132812 165.398438 120.851562 C 166.949219 127.203125 165.375 133.867188 161.152344 138.851562 Z M 162.871094 119.691406 L 160.183594 121.949219 C 160.113281 121.640625 160.035156 121.339844 159.949219 121.035156 C 162.976562 116.007812 163.507812 109.917969 161.28125 104.398438 L 160.722656 103.019531 C 161.4375 102.613281 162.066406 102.082031 162.617188 101.460938 L 164.480469 103.808594 C 168.363281 108.703125 167.652344 115.679688 162.871094 119.691406 Z M 173.507812 102.191406 C 173.109375 105.234375 171.703125 108.007812 169.554688 110.121094 C 169.429688 108.007812 168.8125 105.925781 167.710938 103.996094 L 170.816406 95.15625 C 171.058594 94.464844 171.257812 93.761719 171.425781 93.054688 C 173.164062 95.742188 173.929688 98.964844 173.503906 102.191406 Z M 168.339844 94.285156 L 165.863281 101.332031 L 164.089844 99.097656 C 166.757812 93.484375 167.15625 87.109375 165.222656 81.222656 C 166.082031 81.15625 166.941406 81.066406 167.800781 80.949219 C 169.644531 85.148438 169.863281 89.953125 168.339844 94.289062 Z M 171.84375 77.519531 C 157.78125 81.042969 143.054688 76.800781 133.007812 66.464844 C 134.007812 65.578125 134.65625 64.347656 134.730469 62.9375 C 134.757812 62.433594 134.707031 61.945312 134.597656 61.476562 L 136.949219 61.089844 C 143.707031 59.980469 150.691406 62.148438 155.632812 66.886719 C 158.992188 70.113281 163.183594 72.296875 167.757812 73.207031 L 179.640625 75.566406 L 171.847656 77.519531 Z M 171.84375 77.519531 " fill-opacity="1" fill-rule="nonzero"/></g></g></g></svg>